M48
; DRILL file {KiCad 7.0.1-0} date 2023 May 07, Sunday 10:40:27
; FORMAT={-:-/ absolute / inch / decimal}
; #@! TF.CreationDate,2023-05-07T10:40:27+02:00
; #@! TF.GenerationSoftware,Kicad,Pcbnew,7.0.1-0
; #@! TF.FileFunction,Plated,1,2,PTH
FMAT,2
INCH
; #@! TA.AperFunction,Plated,PTH,ViaDrill
T1C0.0236
; #@! TA.AperFunction,Plated,PTH,ComponentDrill
T2C0.0276
; #@! TA.AperFunction,Plated,PTH,ComponentDrill
T3C0.0295
; #@! TA.AperFunction,Plated,PTH,ComponentDrill
T4C0.0315
; #@! TA.AperFunction,Plated,PTH,ComponentDrill
T5C0.0394
; #@! TA.AperFunction,Plated,PTH,ComponentDrill
T6C0.0472
; #@! TA.AperFunction,Plated,PTH,ComponentDrill
T7C0.0512
; #@! TA.AperFunction,Plated,PTH,ComponentDrill
T8C0.0591
; #@! TA.AperFunction,Plated,PTH,ComponentDrill
T9C0.0787
%
G90
G05
T1
X3.2Y-2.8
X3.2Y-3.25
X3.2Y-3.7
X3.2Y-4.15
X3.3375Y-4.7375
X3.35Y-2.45
X3.5125Y-3.55
X3.675Y-2.925
X3.975Y-4.9
X4.85Y-3.725
X5.05Y-2.45
X6.4Y-3.825
X6.7Y-4.83
X7.325Y-3.2
X7.375Y-3.475
X7.95Y-2.3
X8.3Y-2.45
X8.45Y-2.9
X8.45Y-3.35
X8.45Y-3.825
X8.45Y-4.275
T2
X3.775Y-2.375
X3.925Y-3.075
X3.925Y-3.425
X4.075Y-2.775
X4.075Y-2.875
X4.075Y-3.65
X4.075Y-4.0
X4.125Y-2.375
X4.225Y-2.375
X4.425Y-2.775
X4.425Y-2.875
X4.475Y-3.325
X4.475Y-3.675
X4.575Y-2.375
X4.625Y-2.75
X4.7Y-4.2
X4.7Y-4.3
X4.7Y-4.4
X4.7Y-4.5
X4.975Y-2.75
X5.05Y-4.2
X5.05Y-4.3
X5.05Y-4.4
X5.05Y-4.5
X5.25Y-2.65
X5.25Y-3.0
X5.25Y-3.3
X5.25Y-3.65
X5.25Y-3.825
X5.6Y-3.825
X5.625Y-4.2
X5.625Y-4.3
X5.625Y-4.4
X5.625Y-4.5
X5.7Y-2.525
X5.7Y-2.8
X5.7Y-2.9
X5.7Y-3.0
X5.7Y-3.1
X5.7Y-3.2
X5.7Y-3.3
X5.7Y-3.4
X5.7Y-3.5
X5.7Y-3.6
X5.975Y-3.925
X5.975Y-4.025
X5.975Y-4.2
X5.975Y-4.3
X5.975Y-4.4
X5.975Y-4.5
X6.05Y-2.525
X6.05Y-2.8
X6.05Y-2.9
X6.05Y-3.0
X6.05Y-3.1
X6.05Y-3.2
X6.05Y-3.3
X6.05Y-3.4
X6.05Y-3.5
X6.05Y-3.6
X6.275Y-2.525
X6.275Y-2.775
X6.325Y-3.925
X6.325Y-4.025
X6.625Y-2.525
X6.625Y-2.775
X6.85Y-2.525
X7.2Y-2.525
X7.75Y-2.9
X7.75Y-3.0
X7.75Y-3.1
X7.75Y-3.2
X7.75Y-3.3
X7.75Y-3.4
X8.1Y-2.9
X8.1Y-3.0
X8.1Y-3.1
X8.1Y-3.2
X8.1Y-3.3
X8.1Y-3.4
T3
X4.1Y-3.425
X4.15Y-3.375
X4.15Y-3.475
X4.4458Y-4.25
X4.4458Y-4.35
X4.4958Y-4.3
X4.7252Y-4.1
X5.0252Y-4.1
X5.225Y-4.4
X5.275Y-4.35
X5.275Y-4.45
X6.225Y-4.25
X6.275Y-4.2
X6.325Y-4.25
X7.45Y-3.3
X7.5Y-3.25
X7.5Y-3.35
X8.2608Y-2.9
X8.2608Y-3.0
X8.3108Y-2.95
T4
X3.8012Y-3.1535
X3.8012Y-3.3465
X4.15Y-3.125
X4.1516Y-3.0
X4.3372Y-4.65
X4.3469Y-3.125
X4.3484Y-3.0
X4.35Y-3.2516
X4.35Y-3.4484
X4.35Y-3.5516
X4.35Y-3.7484
X4.475Y-4.65
X4.6Y-3.825
X4.6504Y-2.9496
X4.6504Y-3.0496
X4.6504Y-3.1496
X4.6504Y-3.2496
X4.6504Y-3.3496
X4.6504Y-3.4496
X4.6504Y-3.5496
X4.6504Y-3.6496
X4.7Y-4.65
X4.7031Y-2.6
X4.775Y-3.975
X4.85Y-4.8
X4.9Y-2.6
X4.9504Y-2.9496
X4.9504Y-3.0496
X4.9504Y-3.1496
X4.9504Y-3.2496
X4.9504Y-3.3496
X4.9504Y-3.4496
X4.9504Y-3.5496
X4.9504Y-3.6496
X4.9719Y-3.975
X5.0Y-3.825
X5.125Y-3.625
X5.125Y-3.8219
X5.15Y-4.8
X5.2516Y-3.125
X5.3Y-4.65
X5.425Y-4.65
X5.4484Y-3.125
X5.45Y-2.725
X5.45Y-2.9219
X5.45Y-3.4016
X5.45Y-3.5984
X5.45Y-4.1
X5.45Y-4.2969
X5.575Y-4.8
X5.675Y-2.65
X5.7766Y-2.4
X5.875Y-4.8
X5.9734Y-2.4
X6.025Y-4.65
X6.075Y-2.65
X6.1766Y-4.45
X6.25Y-2.65
X6.2504Y-2.9496
X6.2504Y-3.0496
X6.2504Y-3.1496
X6.2504Y-3.2496
X6.2504Y-3.3496
X6.2504Y-3.4496
X6.2504Y-3.5496
X6.2504Y-3.6496
X6.275Y-4.65
X6.275Y-4.7878
X6.3516Y-2.4
X6.3734Y-4.45
X6.5484Y-2.4
X6.5504Y-2.9496
X6.5504Y-3.0496
X6.5504Y-3.1496
X6.5504Y-3.2496
X6.5504Y-3.3496
X6.5504Y-3.4496
X6.5504Y-3.5496
X6.5504Y-3.6496
X6.5504Y-4.0998
X6.5504Y-4.1998
X6.5504Y-4.2998
X6.5504Y-4.3998
X6.5504Y-4.4998
X6.5504Y-4.5998
X6.5504Y-4.6998
X6.6266Y-3.875
X6.65Y-2.65
X6.8234Y-3.875
X6.825Y-2.65
X6.85Y-3.05
X6.85Y-3.15
X6.85Y-3.25
X6.85Y-3.35
X6.85Y-3.45
X6.85Y-3.55
X6.85Y-3.65
X6.8504Y-4.0998
X6.8504Y-4.1998
X6.8504Y-4.2998
X6.8504Y-4.3998
X6.8504Y-4.4998
X6.8504Y-4.5998
X6.8504Y-4.6998
X7.025Y-4.1016
X7.025Y-4.2984
X7.15Y-3.05
X7.15Y-3.15
X7.15Y-3.25
X7.15Y-3.35
X7.15Y-3.45
X7.15Y-3.55
X7.15Y-3.65
X7.225Y-2.65
X7.675Y-2.675
X7.8128Y-2.675
T5
X3.35Y-2.575
X3.45Y-2.575
X3.55Y-2.575
X3.65Y-2.575
X7.14Y-4.85
X7.29Y-4.85
X7.375Y-2.525
X7.44Y-4.85
X7.59Y-4.85
X7.74Y-4.85
T6
X3.59Y-3.75
X3.795Y-3.75
X7.295Y-2.9
X7.5Y-2.9
T7
X3.8516Y-2.6484
X3.95Y-2.55
X4.0484Y-2.6484
X4.3016Y-2.65
X4.4Y-2.5516
X4.4984Y-2.65
T8
X8.135Y-4.7
T9
X7.92Y-4.75
X8.135Y-4.395
X8.35Y-4.75
T0
M30
