%TF.GenerationSoftware,KiCad,Pcbnew,7.0.1-0*%
%TF.CreationDate,2023-05-07T10:40:25+02:00*%
%TF.ProjectId,Apple PAL card - reloaded,4170706c-6520-4504-914c-206361726420,A*%
%TF.SameCoordinates,Original*%
%TF.FileFunction,Soldermask,Top*%
%TF.FilePolarity,Negative*%
%FSLAX46Y46*%
G04 Gerber Fmt 4.6, Leading zero omitted, Abs format (unit mm)*
G04 Created by KiCad (PCBNEW 7.0.1-0) date 2023-05-07 10:40:25*
%MOMM*%
%LPD*%
G01*
G04 APERTURE LIST*
G04 Aperture macros list*
%AMRoundRect*
0 Rectangle with rounded corners*
0 $1 Rounding radius*
0 $2 $3 $4 $5 $6 $7 $8 $9 X,Y pos of 4 corners*
0 Add a 4 corners polygon primitive as box body*
4,1,4,$2,$3,$4,$5,$6,$7,$8,$9,$2,$3,0*
0 Add four circle primitives for the rounded corners*
1,1,$1+$1,$2,$3*
1,1,$1+$1,$4,$5*
1,1,$1+$1,$6,$7*
1,1,$1+$1,$8,$9*
0 Add four rect primitives between the rounded corners*
20,1,$1+$1,$2,$3,$4,$5,0*
20,1,$1+$1,$4,$5,$6,$7,0*
20,1,$1+$1,$6,$7,$8,$9,0*
20,1,$1+$1,$8,$9,$2,$3,0*%
G04 Aperture macros list end*
%ADD10C,0.150000*%
%ADD11C,1.400000*%
%ADD12O,1.400000X1.400000*%
%ADD13C,1.600000*%
%ADD14R,1.600000X1.600000*%
%ADD15O,1.600000X1.600000*%
%ADD16C,2.000000*%
%ADD17R,1.300000X1.300000*%
%ADD18C,1.300000*%
%ADD19C,2.340000*%
%ADD20RoundRect,0.381000X0.381000X3.289000X-0.381000X3.289000X-0.381000X-3.289000X0.381000X-3.289000X0*%
%ADD21R,1.700000X1.700000*%
%ADD22O,1.700000X1.700000*%
%ADD23R,1.500000X1.500000*%
%ADD24O,1.500000X1.500000*%
%ADD25C,3.200000*%
%ADD26C,3.000000*%
%ADD27C,4.000000*%
%ADD28C,1.500000*%
G04 APERTURE END LIST*
D10*
X206197200Y-134950200D02*
X141173200Y-134950200D01*
X141173200Y-126822200D01*
X206197200Y-126822200D01*
X206197200Y-134950200D01*
G36*
X206197200Y-134950200D02*
G01*
X141173200Y-134950200D01*
X141173200Y-126822200D01*
X206197200Y-126822200D01*
X206197200Y-134950200D01*
G37*
D11*
%TO.C,R12*%
X142875000Y-111760000D03*
D12*
X151765000Y-111760000D03*
%TD*%
D13*
%TO.C,C18*%
X166330000Y-60960000D03*
X161330000Y-60960000D03*
%TD*%
D14*
%TO.C,U3*%
X173990000Y-77470000D03*
D15*
X173990000Y-80010000D03*
X173990000Y-82550000D03*
X173990000Y-85090000D03*
X173990000Y-87630000D03*
X173990000Y-90170000D03*
X173990000Y-92710000D03*
X181610000Y-92710000D03*
X181610000Y-90170000D03*
X181610000Y-87630000D03*
X181610000Y-85090000D03*
X181610000Y-82550000D03*
X181610000Y-80010000D03*
X181610000Y-77470000D03*
%TD*%
D11*
%TO.C,R11*%
X151765000Y-114300000D03*
D12*
X142875000Y-114300000D03*
%TD*%
D11*
%TO.C,R22*%
X153670000Y-86360000D03*
D12*
X144780000Y-86360000D03*
%TD*%
D11*
%TO.C,R29*%
X112395000Y-73025000D03*
D12*
X103505000Y-73025000D03*
%TD*%
D16*
%TO.C,H1*%
X82550000Y-59690000D03*
%TD*%
D11*
%TO.C,R36*%
X103505000Y-92710000D03*
D12*
X103505000Y-101600000D03*
%TD*%
D14*
%TO.C,C1*%
X113665000Y-118110000D03*
D13*
X110165000Y-118110000D03*
%TD*%
D11*
%TO.C,R25*%
X168275000Y-70485000D03*
D12*
X159385000Y-70485000D03*
%TD*%
D13*
%TO.C,L1*%
X127000000Y-97155000D03*
D15*
X116840000Y-97155000D03*
%TD*%
D16*
%TO.C,H3*%
X82550000Y-123190000D03*
%TD*%
%TO.C,TP4*%
X192786000Y-123190000D03*
%TD*%
D11*
%TO.C,R7*%
X119380000Y-106680000D03*
D12*
X128270000Y-106680000D03*
%TD*%
D17*
%TO.C,Q4*%
X105410000Y-88265000D03*
D18*
X104140000Y-86995000D03*
X105410000Y-85725000D03*
%TD*%
D14*
%TO.C,CR1*%
X149225000Y-121920000D03*
D15*
X141605000Y-121920000D03*
%TD*%
D19*
%TO.C,R33*%
X97830000Y-67270000D03*
X100330000Y-64770000D03*
X102830000Y-67270000D03*
%TD*%
D13*
%TO.C,L2*%
X144145000Y-67310000D03*
D15*
X154305000Y-67310000D03*
%TD*%
D14*
%TO.C,U1*%
X166380000Y-104135000D03*
D15*
X166380000Y-106675000D03*
X166380000Y-109215000D03*
X166380000Y-111755000D03*
X166380000Y-114295000D03*
X166380000Y-116835000D03*
X166380000Y-119375000D03*
X174000000Y-119375000D03*
X174000000Y-116835000D03*
X174000000Y-114295000D03*
X174000000Y-111755000D03*
X174000000Y-109215000D03*
X174000000Y-106675000D03*
X174000000Y-104135000D03*
%TD*%
D11*
%TO.C,R18*%
X144780000Y-64135000D03*
D12*
X153670000Y-64135000D03*
%TD*%
D13*
%TO.C,C12*%
X138430000Y-104140000D03*
X138430000Y-109140000D03*
%TD*%
D20*
%TO.C,J3*%
X143205000Y-130533000D03*
X145745000Y-130533000D03*
X148285000Y-130533000D03*
X150825000Y-130533000D03*
X153365000Y-130533000D03*
X155905000Y-130533000D03*
X158445000Y-130533000D03*
X160985000Y-130533000D03*
X163525000Y-130533000D03*
X166065000Y-130533000D03*
X168605000Y-130533000D03*
X171145000Y-130533000D03*
X173685000Y-130533000D03*
X176225000Y-130533000D03*
X178765000Y-130533000D03*
X181305000Y-130533000D03*
X183845000Y-130533000D03*
X186385000Y-130533000D03*
X188925000Y-130533000D03*
X191465000Y-130533000D03*
X194005000Y-130533000D03*
X196545000Y-130533000D03*
X199085000Y-130533000D03*
X201625000Y-130533000D03*
X204165000Y-130533000D03*
%TD*%
D21*
%TO.C,J1*%
X85090000Y-65405000D03*
D22*
X87630000Y-65405000D03*
X90170000Y-65405000D03*
X92710000Y-65405000D03*
%TD*%
D11*
%TO.C,R24*%
X153670000Y-76200000D03*
D12*
X144780000Y-76200000D03*
%TD*%
D13*
%TO.C,C7*%
X110490000Y-82590000D03*
X110490000Y-87590000D03*
%TD*%
%TO.C,C9*%
X130175000Y-97075000D03*
X130175000Y-92075000D03*
%TD*%
D11*
%TO.C,R19*%
X153670000Y-88900000D03*
D12*
X144780000Y-88900000D03*
%TD*%
D11*
%TO.C,R42*%
X205740000Y-83820000D03*
D12*
X196850000Y-83820000D03*
%TD*%
D13*
%TO.C,C16*%
X110410000Y-79375000D03*
X105410000Y-79375000D03*
%TD*%
D14*
%TO.C,CR2*%
X123190000Y-121920000D03*
D15*
X130810000Y-121920000D03*
%TD*%
D13*
%TO.C,C15*%
X138430000Y-74215000D03*
X138430000Y-69215000D03*
%TD*%
D11*
%TO.C,R15*%
X160655000Y-102235000D03*
D12*
X151765000Y-102235000D03*
%TD*%
D11*
%TO.C,R41*%
X205740000Y-81280000D03*
D12*
X196850000Y-81280000D03*
%TD*%
D14*
%TO.C,C2*%
X159385000Y-118110000D03*
D13*
X159385000Y-121610000D03*
%TD*%
D11*
%TO.C,R35*%
X126365000Y-69850000D03*
D12*
X117475000Y-69850000D03*
%TD*%
D11*
%TO.C,R9*%
X119380000Y-114300000D03*
D12*
X128270000Y-114300000D03*
%TD*%
D13*
%TO.C,C17*%
X119460000Y-66040000D03*
X124460000Y-66040000D03*
%TD*%
D16*
%TO.C,TP2*%
X185166000Y-123190000D03*
%TD*%
D11*
%TO.C,R16*%
X151765000Y-109220000D03*
D12*
X142875000Y-109220000D03*
%TD*%
D13*
%TO.C,C13*%
X151725000Y-60960000D03*
X146725000Y-60960000D03*
%TD*%
D11*
%TO.C,R4*%
X133350000Y-67310000D03*
D12*
X133350000Y-76200000D03*
%TD*%
D16*
%TO.C,TP6*%
X187325000Y-64135000D03*
%TD*%
D13*
%TO.C,C11*%
X121285000Y-100965000D03*
X126285000Y-100965000D03*
%TD*%
D11*
%TO.C,R37*%
X99695000Y-86995000D03*
D12*
X99695000Y-78105000D03*
%TD*%
D11*
%TO.C,R14*%
X160655000Y-99695000D03*
D12*
X151765000Y-99695000D03*
%TD*%
D11*
%TO.C,R40*%
X205740000Y-78740000D03*
D12*
X196850000Y-78740000D03*
%TD*%
D11*
%TO.C,R13*%
X142875000Y-106680000D03*
D12*
X151765000Y-106680000D03*
%TD*%
D13*
%TO.C,C3*%
X178435000Y-104180000D03*
X178435000Y-109180000D03*
%TD*%
D17*
%TO.C,Q1*%
X112924000Y-107950000D03*
D18*
X114194000Y-109220000D03*
X112924000Y-110490000D03*
%TD*%
D11*
%TO.C,R26*%
X153670000Y-91440000D03*
D12*
X144780000Y-91440000D03*
%TD*%
D11*
%TO.C,R8*%
X128270000Y-109220000D03*
D12*
X119380000Y-109220000D03*
%TD*%
D11*
%TO.C,R6*%
X133350000Y-92710000D03*
D12*
X133350000Y-83820000D03*
%TD*%
D13*
%TO.C,C10*%
X168315000Y-98425000D03*
X173315000Y-98425000D03*
%TD*%
%TO.C,L4*%
X173355000Y-67310000D03*
D15*
X183515000Y-67310000D03*
%TD*%
D16*
%TO.C,TP1*%
X181356000Y-123190000D03*
%TD*%
D13*
%TO.C,R2*%
X119380000Y-118110000D03*
D15*
X134620000Y-118110000D03*
%TD*%
D11*
%TO.C,R20*%
X153670000Y-73660000D03*
D12*
X144780000Y-73660000D03*
%TD*%
D11*
%TO.C,R31*%
X116205000Y-60325000D03*
D12*
X107315000Y-60325000D03*
%TD*%
D16*
%TO.C,H2*%
X213360000Y-59690000D03*
%TD*%
D23*
%TO.C,CR3*%
X127640000Y-104140000D03*
D24*
X120020000Y-104140000D03*
%TD*%
D16*
%TO.C,C20*%
X91186000Y-95250000D03*
X96393000Y-95250000D03*
%TD*%
D13*
%TO.C,C14*%
X105450000Y-76200000D03*
X110450000Y-76200000D03*
%TD*%
D25*
%TO.C,H5*%
X205740000Y-67945000D03*
%TD*%
D19*
%TO.C,R30*%
X109260000Y-67310000D03*
X111760000Y-64810000D03*
X114260000Y-67310000D03*
%TD*%
D11*
%TO.C,R5*%
X113665000Y-93345000D03*
D12*
X113665000Y-84455000D03*
%TD*%
D11*
%TO.C,R44*%
X159385000Y-64135000D03*
D12*
X168275000Y-64135000D03*
%TD*%
D13*
%TO.C,C8*%
X110490000Y-90210000D03*
X110490000Y-95210000D03*
%TD*%
D11*
%TO.C,R17*%
X144780000Y-71120000D03*
D12*
X153670000Y-71120000D03*
%TD*%
D17*
%TO.C,Q6*%
X190500000Y-85090000D03*
D18*
X189230000Y-83820000D03*
X190500000Y-82550000D03*
%TD*%
D11*
%TO.C,R32*%
X112395000Y-70485000D03*
D12*
X103505000Y-70485000D03*
%TD*%
D14*
%TO.C,U4*%
X158760000Y-74920000D03*
D15*
X158760000Y-77460000D03*
X158760000Y-80000000D03*
X158760000Y-82540000D03*
X158760000Y-85080000D03*
X158760000Y-87620000D03*
X158760000Y-90160000D03*
X158760000Y-92700000D03*
X166380000Y-92700000D03*
X166380000Y-90160000D03*
X166380000Y-87620000D03*
X166380000Y-85080000D03*
X166380000Y-82540000D03*
X166380000Y-80000000D03*
X166380000Y-77460000D03*
X166380000Y-74920000D03*
%TD*%
D11*
%TO.C,R23*%
X153670000Y-83820000D03*
D12*
X144780000Y-83820000D03*
%TD*%
D11*
%TO.C,R27*%
X153670000Y-81280000D03*
D12*
X144780000Y-81280000D03*
%TD*%
D17*
%TO.C,Q2*%
X133985000Y-113030000D03*
D18*
X132715000Y-111760000D03*
X133985000Y-110490000D03*
%TD*%
D17*
%TO.C,Q5*%
X209825000Y-73660000D03*
D18*
X211095000Y-74930000D03*
X209825000Y-76200000D03*
%TD*%
D13*
%TO.C,C6*%
X138390000Y-79375000D03*
X133390000Y-79375000D03*
%TD*%
D11*
%TO.C,R21*%
X153670000Y-78740000D03*
D12*
X144780000Y-78740000D03*
%TD*%
D11*
%TO.C,R28*%
X173990000Y-64135000D03*
D12*
X182880000Y-64135000D03*
%TD*%
D13*
%TO.C,C5*%
X138430000Y-86400000D03*
X138430000Y-91400000D03*
%TD*%
D16*
%TO.C,C19*%
X185293000Y-73660000D03*
X190500000Y-73660000D03*
%TD*%
D11*
%TO.C,R10*%
X119380000Y-111760000D03*
D12*
X128270000Y-111760000D03*
%TD*%
D16*
%TO.C,TP5*%
X196596000Y-123190000D03*
%TD*%
D26*
%TO.C,J2*%
X206629000Y-119380000D03*
D27*
X201168000Y-120650000D03*
X206629000Y-111633000D03*
X212090000Y-120650000D03*
%TD*%
D11*
%TO.C,R38*%
X205740000Y-73660000D03*
D12*
X196850000Y-73660000D03*
%TD*%
D11*
%TO.C,R39*%
X205740000Y-76200000D03*
D12*
X196850000Y-76200000D03*
%TD*%
D13*
%TO.C,C4*%
X156885000Y-113030000D03*
X161885000Y-113030000D03*
%TD*%
D11*
%TO.C,R3*%
X133350000Y-97155000D03*
D12*
X142240000Y-97155000D03*
%TD*%
D13*
%TO.C,R1*%
X137795000Y-118110000D03*
D15*
X153035000Y-118110000D03*
%TD*%
D13*
%TO.C,L3*%
X158750000Y-67310000D03*
D15*
X168910000Y-67310000D03*
%TD*%
D25*
%TO.C,H4*%
X205740000Y-60960000D03*
%TD*%
D16*
%TO.C,TP3*%
X188976000Y-123190000D03*
%TD*%
D28*
%TO.C,Y1*%
X96550000Y-80100000D03*
X96550000Y-85000000D03*
%TD*%
D11*
%TO.C,R34*%
X104775000Y-60325000D03*
D12*
X95885000Y-60325000D03*
%TD*%
D11*
%TO.C,R43*%
X196850000Y-86360000D03*
D12*
X205740000Y-86360000D03*
%TD*%
D14*
%TO.C,U2*%
X118120000Y-74920000D03*
D15*
X118120000Y-77460000D03*
X118120000Y-80000000D03*
X118120000Y-82540000D03*
X118120000Y-85080000D03*
X118120000Y-87620000D03*
X118120000Y-90160000D03*
X118120000Y-92700000D03*
X125740000Y-92700000D03*
X125740000Y-90160000D03*
X125740000Y-87620000D03*
X125740000Y-85080000D03*
X125740000Y-82540000D03*
X125740000Y-80000000D03*
X125740000Y-77460000D03*
X125740000Y-74920000D03*
%TD*%
D14*
%TO.C,C21*%
X194945000Y-67945000D03*
D13*
X198445000Y-67945000D03*
%TD*%
D17*
%TO.C,Q3*%
X158115000Y-107950000D03*
D18*
X159385000Y-106680000D03*
X160655000Y-107950000D03*
%TD*%
G36*
X95823000Y-76216613D02*
G01*
X95868387Y-76262000D01*
X95885000Y-76324000D01*
X95885000Y-88776000D01*
X95868387Y-88838000D01*
X95823000Y-88883387D01*
X95761000Y-88900000D01*
X81404000Y-88900000D01*
X81342000Y-88883387D01*
X81296613Y-88838000D01*
X81280000Y-88776000D01*
X81280000Y-76324000D01*
X81296613Y-76262000D01*
X81342000Y-76216613D01*
X81404000Y-76200000D01*
X95761000Y-76200000D01*
X95823000Y-76216613D01*
G37*
M02*
