%TF.GenerationSoftware,KiCad,Pcbnew,7.0.1-0*%
%TF.CreationDate,2023-05-07T10:40:24+02:00*%
%TF.ProjectId,Apple PAL card - reloaded,4170706c-6520-4504-914c-206361726420,A*%
%TF.SameCoordinates,Original*%
%TF.FileFunction,Copper,L1,Top*%
%TF.FilePolarity,Positive*%
%FSLAX46Y46*%
G04 Gerber Fmt 4.6, Leading zero omitted, Abs format (unit mm)*
G04 Created by KiCad (PCBNEW 7.0.1-0) date 2023-05-07 10:40:24*
%MOMM*%
%LPD*%
G01*
G04 APERTURE LIST*
G04 Aperture macros list*
%AMRoundRect*
0 Rectangle with rounded corners*
0 $1 Rounding radius*
0 $2 $3 $4 $5 $6 $7 $8 $9 X,Y pos of 4 corners*
0 Add a 4 corners polygon primitive as box body*
4,1,4,$2,$3,$4,$5,$6,$7,$8,$9,$2,$3,0*
0 Add four circle primitives for the rounded corners*
1,1,$1+$1,$2,$3*
1,1,$1+$1,$4,$5*
1,1,$1+$1,$6,$7*
1,1,$1+$1,$8,$9*
0 Add four rect primitives between the rounded corners*
20,1,$1+$1,$2,$3,$4,$5,0*
20,1,$1+$1,$4,$5,$6,$7,0*
20,1,$1+$1,$6,$7,$8,$9,0*
20,1,$1+$1,$8,$9,$2,$3,0*%
G04 Aperture macros list end*
%TA.AperFunction,ComponentPad*%
%ADD10C,1.400000*%
%TD*%
%TA.AperFunction,ComponentPad*%
%ADD11O,1.400000X1.400000*%
%TD*%
%TA.AperFunction,ComponentPad*%
%ADD12C,1.600000*%
%TD*%
%TA.AperFunction,ComponentPad*%
%ADD13R,1.600000X1.600000*%
%TD*%
%TA.AperFunction,ComponentPad*%
%ADD14O,1.600000X1.600000*%
%TD*%
%TA.AperFunction,ComponentPad*%
%ADD15C,2.000000*%
%TD*%
%TA.AperFunction,ComponentPad*%
%ADD16R,1.300000X1.300000*%
%TD*%
%TA.AperFunction,ComponentPad*%
%ADD17C,1.300000*%
%TD*%
%TA.AperFunction,ComponentPad*%
%ADD18C,2.340000*%
%TD*%
%TA.AperFunction,SMDPad,CuDef*%
%ADD19RoundRect,0.381000X0.381000X3.289000X-0.381000X3.289000X-0.381000X-3.289000X0.381000X-3.289000X0*%
%TD*%
%TA.AperFunction,ComponentPad*%
%ADD20R,1.700000X1.700000*%
%TD*%
%TA.AperFunction,ComponentPad*%
%ADD21O,1.700000X1.700000*%
%TD*%
%TA.AperFunction,ComponentPad*%
%ADD22R,1.500000X1.500000*%
%TD*%
%TA.AperFunction,ComponentPad*%
%ADD23O,1.500000X1.500000*%
%TD*%
%TA.AperFunction,ComponentPad*%
%ADD24C,3.000000*%
%TD*%
%TA.AperFunction,ComponentPad*%
%ADD25C,4.000000*%
%TD*%
%TA.AperFunction,ComponentPad*%
%ADD26C,1.500000*%
%TD*%
%TA.AperFunction,ViaPad*%
%ADD27C,1.200000*%
%TD*%
%TA.AperFunction,Conductor*%
%ADD28C,1.000000*%
%TD*%
%TA.AperFunction,Conductor*%
%ADD29C,0.500000*%
%TD*%
G04 APERTURE END LIST*
D10*
%TO.P,R12,1*%
%TO.N,Net-(Q2-C)*%
X142875000Y-111760000D03*
D11*
%TO.P,R12,2*%
%TO.N,Net-(Q3-B)*%
X151765000Y-111760000D03*
%TD*%
D12*
%TO.P,C18,1*%
%TO.N,GNDD*%
X166330000Y-60960000D03*
%TO.P,C18,2*%
%TO.N,Net-(C18-Pad2)*%
X161330000Y-60960000D03*
%TD*%
D13*
%TO.P,U3,1,DSA*%
%TO.N,+5V*%
X173990000Y-77470000D03*
D14*
%TO.P,U3,2,DSB*%
%TO.N,Net-(U3-DSB)*%
X173990000Y-80010000D03*
%TO.P,U3,3,Q0*%
%TO.N,unconnected-(U3-Q0-Pad3)*%
X173990000Y-82550000D03*
%TO.P,U3,4,Q1*%
%TO.N,unconnected-(U3-Q1-Pad4)*%
X173990000Y-85090000D03*
%TO.P,U3,5,Q2*%
%TO.N,unconnected-(U3-Q2-Pad5)*%
X173990000Y-87630000D03*
%TO.P,U3,6,Q3*%
%TO.N,Net-(U3-Q3)*%
X173990000Y-90170000D03*
%TO.P,U3,7,GND*%
%TO.N,GNDD*%
X173990000Y-92710000D03*
%TO.P,U3,8,CP*%
%TO.N,Net-(J3-DMAout)*%
X181610000Y-92710000D03*
%TO.P,U3,9,~{MR}*%
%TO.N,Net-(J3-VIDEO_S.)*%
X181610000Y-90170000D03*
%TO.P,U3,10,Q4*%
%TO.N,Net-(U3-Q4)*%
X181610000Y-87630000D03*
%TO.P,U3,11,Q5*%
%TO.N,Net-(U3-Q5)*%
X181610000Y-85090000D03*
%TO.P,U3,12,Q6*%
%TO.N,Net-(U3-Q6)*%
X181610000Y-82550000D03*
%TO.P,U3,13,Q7*%
%TO.N,Net-(U3-Q7)*%
X181610000Y-80010000D03*
%TO.P,U3,14,VCC*%
%TO.N,+5V*%
X181610000Y-77470000D03*
%TD*%
D10*
%TO.P,R11,1*%
%TO.N,GNDD*%
X151765000Y-114300000D03*
D11*
%TO.P,R11,2*%
%TO.N,Net-(Q2-C)*%
X142875000Y-114300000D03*
%TD*%
D10*
%TO.P,R22,1*%
%TO.N,Net-(U4-~{Q1})*%
X153670000Y-86360000D03*
D11*
%TO.P,R22,2*%
%TO.N,Net-(R20-Pad2)*%
X144780000Y-86360000D03*
%TD*%
D10*
%TO.P,R29,1*%
%TO.N,Net-(R14-Pad2)*%
X112395000Y-73025000D03*
D11*
%TO.P,R29,2*%
%TO.N,Net-(R29-Pad2)*%
X103505000Y-73025000D03*
%TD*%
D10*
%TO.P,R36,1*%
%TO.N,Net-(Q4-E)*%
X103505000Y-92710000D03*
D11*
%TO.P,R36,2*%
%TO.N,GNDD*%
X103505000Y-101600000D03*
%TD*%
D13*
%TO.P,C1,1*%
%TO.N,+10V*%
X113665000Y-118110000D03*
D12*
%TO.P,C1,2*%
%TO.N,GNDD*%
X110165000Y-118110000D03*
%TD*%
D10*
%TO.P,R25,1*%
%TO.N,Net-(U3-Q7)*%
X168275000Y-70485000D03*
D11*
%TO.P,R25,2*%
%TO.N,Net-(L3-Pad1)*%
X159385000Y-70485000D03*
%TD*%
D12*
%TO.P,L1,1,1*%
%TO.N,Net-(C7-Pad2)*%
X127000000Y-97155000D03*
D14*
%TO.P,L1,2,2*%
%TO.N,GNDD*%
X116840000Y-97155000D03*
%TD*%
D15*
%TO.P,TP4,1,1*%
%TO.N,Net-(J3-INTout)*%
X192786000Y-123190000D03*
%TD*%
D10*
%TO.P,R7,1*%
%TO.N,GNDD*%
X119380000Y-106680000D03*
D11*
%TO.P,R7,2*%
%TO.N,Net-(CR3-K)*%
X128270000Y-106680000D03*
%TD*%
D16*
%TO.P,Q4,1,E*%
%TO.N,Net-(Q4-E)*%
X105410000Y-88265000D03*
D17*
%TO.P,Q4,2,B*%
%TO.N,Net-(Q4-B)*%
X104140000Y-86995000D03*
%TO.P,Q4,3,C*%
%TO.N,Net-(Q4-C)*%
X105410000Y-85725000D03*
%TD*%
D13*
%TO.P,CR1,1,K*%
%TO.N,+5V*%
X149225000Y-121920000D03*
D14*
%TO.P,CR1,2,A*%
%TO.N,GNDD*%
X141605000Y-121920000D03*
%TD*%
D18*
%TO.P,R33,1,1*%
%TO.N,Net-(C17-Pad1)*%
X97830000Y-67270000D03*
%TO.P,R33,2,2*%
X100330000Y-64770000D03*
%TO.P,R33,3,3*%
%TO.N,Net-(R32-Pad2)*%
X102830000Y-67270000D03*
%TD*%
D12*
%TO.P,L2,1,1*%
%TO.N,Net-(L2-Pad1)*%
X144145000Y-67310000D03*
D14*
%TO.P,L2,2,2*%
%TO.N,Net-(C13-Pad2)*%
X154305000Y-67310000D03*
%TD*%
D13*
%TO.P,U1,1,~{R}*%
%TO.N,+5V*%
X166380000Y-104135000D03*
D14*
%TO.P,U1,2,D*%
%TO.N,Net-(J3-VIDEO_S.)*%
X166380000Y-106675000D03*
%TO.P,U1,3,C*%
%TO.N,Net-(J3-COLOR_R.)*%
X166380000Y-109215000D03*
%TO.P,U1,4,~{S}*%
%TO.N,+5V*%
X166380000Y-111755000D03*
%TO.P,U1,5,Q*%
%TO.N,Net-(U1A-Q)*%
X166380000Y-114295000D03*
%TO.P,U1,6,~{Q}*%
%TO.N,unconnected-(U1A-~{Q}-Pad6)*%
X166380000Y-116835000D03*
%TO.P,U1,7,GND*%
%TO.N,GNDD*%
X166380000Y-119375000D03*
%TO.P,U1,8,~{Q}*%
%TO.N,Net-(U1B-D)*%
X174000000Y-119375000D03*
%TO.P,U1,9,Q*%
%TO.N,Net-(U1B-Q)*%
X174000000Y-116835000D03*
%TO.P,U1,10,~{S}*%
%TO.N,+5V*%
X174000000Y-114295000D03*
%TO.P,U1,11,C*%
%TO.N,Net-(J3-VIDEO_S.)*%
X174000000Y-111755000D03*
%TO.P,U1,12,D*%
%TO.N,Net-(U1B-D)*%
X174000000Y-109215000D03*
%TO.P,U1,13,~{R}*%
%TO.N,+5V*%
X174000000Y-106675000D03*
%TO.P,U1,14,VCC*%
X174000000Y-104135000D03*
%TD*%
D10*
%TO.P,R18,1*%
%TO.N,Net-(C13-Pad2)*%
X144780000Y-64135000D03*
D11*
%TO.P,R18,2*%
%TO.N,Net-(Q5-B)*%
X153670000Y-64135000D03*
%TD*%
D12*
%TO.P,C12,1*%
%TO.N,GNDD*%
X138430000Y-104140000D03*
%TO.P,C12,2*%
%TO.N,Net-(Q2-B)*%
X138430000Y-109140000D03*
%TD*%
D19*
%TO.P,J3,1,/IOSEL*%
%TO.N,unconnected-(J3-{slash}IOSEL-Pad1)*%
X143205000Y-130533000D03*
%TO.P,J3,2,A0*%
%TO.N,unconnected-(J3-A0-Pad2)*%
X145745000Y-130533000D03*
%TO.P,J3,3,A1*%
%TO.N,unconnected-(J3-A1-Pad3)*%
X148285000Y-130533000D03*
%TO.P,J3,4,A2*%
%TO.N,unconnected-(J3-A2-Pad4)*%
X150825000Y-130533000D03*
%TO.P,J3,5,A3*%
%TO.N,unconnected-(J3-A3-Pad5)*%
X153365000Y-130533000D03*
%TO.P,J3,6,A4*%
%TO.N,unconnected-(J3-A4-Pad6)*%
X155905000Y-130533000D03*
%TO.P,J3,7,A5*%
%TO.N,unconnected-(J3-A5-Pad7)*%
X158445000Y-130533000D03*
%TO.P,J3,8,A6*%
%TO.N,unconnected-(J3-A6-Pad8)*%
X160985000Y-130533000D03*
%TO.P,J3,9,A7*%
%TO.N,unconnected-(J3-A7-Pad9)*%
X163525000Y-130533000D03*
%TO.P,J3,10,A8*%
%TO.N,unconnected-(J3-A8-Pad10)*%
X166065000Y-130533000D03*
%TO.P,J3,11,A9*%
%TO.N,unconnected-(J3-A9-Pad11)*%
X168605000Y-130533000D03*
%TO.P,J3,12,A10*%
%TO.N,unconnected-(J3-A10-Pad12)*%
X171145000Y-130533000D03*
%TO.P,J3,13,A11*%
%TO.N,unconnected-(J3-A11-Pad13)*%
X173685000Y-130533000D03*
%TO.P,J3,14,A12*%
%TO.N,unconnected-(J3-A12-Pad14)*%
X176225000Y-130533000D03*
%TO.P,J3,15,A13*%
%TO.N,unconnected-(J3-A13-Pad15)*%
X178765000Y-130533000D03*
%TO.P,J3,16,A14*%
%TO.N,unconnected-(J3-A14-Pad16)*%
X181305000Y-130533000D03*
%TO.P,J3,17,A15*%
%TO.N,unconnected-(J3-A15-Pad17)*%
X183845000Y-130533000D03*
%TO.P,J3,18,R/W*%
%TO.N,unconnected-(J3-R{slash}W-Pad18)*%
X186385000Y-130533000D03*
%TO.P,J3,19,VIDEO_S.*%
%TO.N,Net-(J3-VIDEO_S.)*%
X188925000Y-130533000D03*
%TO.P,J3,20,/IOSTRB*%
%TO.N,unconnected-(J3-{slash}IOSTRB-Pad20)*%
X191465000Y-130533000D03*
%TO.P,J3,21,RDY*%
%TO.N,unconnected-(J3-RDY-Pad21)*%
X194005000Y-130533000D03*
%TO.P,J3,22,DMA*%
%TO.N,unconnected-(J3-DMA-Pad22)*%
X196545000Y-130533000D03*
%TO.P,J3,23,INTout*%
%TO.N,Net-(J3-INTout)*%
X199085000Y-130533000D03*
%TO.P,J3,24,DMAout*%
%TO.N,Net-(J3-DMAout)*%
X201625000Y-130533000D03*
%TO.P,J3,25,+5V*%
%TO.N,unconnected-(J3-+5V-Pad25)*%
X204165000Y-130533000D03*
%TD*%
D20*
%TO.P,J1,1,Pin_1*%
%TO.N,GNDD*%
X85090000Y-65405000D03*
D21*
%TO.P,J1,2,Pin_2*%
%TO.N,Net-(J1-Pin_2)*%
X87630000Y-65405000D03*
%TO.P,J1,3,Pin_3*%
%TO.N,unconnected-(J1-Pin_3-Pad3)*%
X90170000Y-65405000D03*
%TO.P,J1,4,Pin_4*%
%TO.N,+10V*%
X92710000Y-65405000D03*
%TD*%
D10*
%TO.P,R24,1*%
%TO.N,Net-(U4-~{Q3})*%
X153670000Y-76200000D03*
D11*
%TO.P,R24,2*%
%TO.N,Net-(R19-Pad2)*%
X144780000Y-76200000D03*
%TD*%
D12*
%TO.P,C7,1*%
%TO.N,Net-(C7-Pad1)*%
X110490000Y-82590000D03*
%TO.P,C7,2*%
%TO.N,Net-(C7-Pad2)*%
X110490000Y-87590000D03*
%TD*%
%TO.P,C9,1*%
%TO.N,Net-(C7-Pad2)*%
X130175000Y-97075000D03*
%TO.P,C9,2*%
%TO.N,Net-(C9-Pad2)*%
X130175000Y-92075000D03*
%TD*%
D10*
%TO.P,R19,1*%
%TO.N,Net-(U4-Q1)*%
X153670000Y-88900000D03*
D11*
%TO.P,R19,2*%
%TO.N,Net-(R19-Pad2)*%
X144780000Y-88900000D03*
%TD*%
D10*
%TO.P,R42,1*%
%TO.N,GNDD*%
X205740000Y-83820000D03*
D11*
%TO.P,R42,2*%
%TO.N,Net-(Q6-E)*%
X196850000Y-83820000D03*
%TD*%
D12*
%TO.P,C16,1*%
%TO.N,GNDD*%
X110410000Y-79375000D03*
%TO.P,C16,2*%
%TO.N,Net-(Q4-C)*%
X105410000Y-79375000D03*
%TD*%
D13*
%TO.P,CR2,1,K*%
%TO.N,+10V*%
X123190000Y-121920000D03*
D14*
%TO.P,CR2,2,A*%
%TO.N,+5V*%
X130810000Y-121920000D03*
%TD*%
D12*
%TO.P,C15,1*%
%TO.N,Net-(C15-Pad1)*%
X138430000Y-74215000D03*
%TO.P,C15,2*%
%TO.N,Net-(Q5-B)*%
X138430000Y-69215000D03*
%TD*%
D10*
%TO.P,R15,1*%
%TO.N,Net-(Q3-C)*%
X160655000Y-102235000D03*
D11*
%TO.P,R15,2*%
%TO.N,Net-(R15-Pad2)*%
X151765000Y-102235000D03*
%TD*%
D10*
%TO.P,R41,1*%
%TO.N,Net-(Q5-E)*%
X205740000Y-81280000D03*
D11*
%TO.P,R41,2*%
%TO.N,Net-(Q6-B)*%
X196850000Y-81280000D03*
%TD*%
D13*
%TO.P,C2,1*%
%TO.N,+5V*%
X159385000Y-118110000D03*
D12*
%TO.P,C2,2*%
%TO.N,GNDD*%
X159385000Y-121610000D03*
%TD*%
D10*
%TO.P,R35,1*%
%TO.N,+5V*%
X126365000Y-69850000D03*
D11*
%TO.P,R35,2*%
%TO.N,Net-(Q4-C)*%
X117475000Y-69850000D03*
%TD*%
D10*
%TO.P,R9,1*%
%TO.N,Net-(Q1-C)*%
X119380000Y-114300000D03*
D11*
%TO.P,R9,2*%
%TO.N,+10V*%
X128270000Y-114300000D03*
%TD*%
D12*
%TO.P,C17,1*%
%TO.N,Net-(C17-Pad1)*%
X119460000Y-66040000D03*
%TO.P,C17,2*%
%TO.N,GNDD*%
X124460000Y-66040000D03*
%TD*%
D15*
%TO.P,TP2,1,1*%
%TO.N,Net-(J3-VIDEO_S.)*%
X185166000Y-123190000D03*
%TD*%
D10*
%TO.P,R16,1*%
%TO.N,Net-(Q3-C)*%
X151765000Y-109220000D03*
D11*
%TO.P,R16,2*%
%TO.N,GNDD*%
X142875000Y-109220000D03*
%TD*%
D12*
%TO.P,C13,1*%
%TO.N,GNDD*%
X151725000Y-60960000D03*
%TO.P,C13,2*%
%TO.N,Net-(C13-Pad2)*%
X146725000Y-60960000D03*
%TD*%
D10*
%TO.P,R4,1*%
%TO.N,GNDD*%
X133350000Y-67310000D03*
D11*
%TO.P,R4,2*%
%TO.N,Net-(C6-Pad2)*%
X133350000Y-76200000D03*
%TD*%
D15*
%TO.P,TP6,1,1*%
%TO.N,Net-(U3-DSB)*%
X187325000Y-64135000D03*
%TD*%
D12*
%TO.P,C11,1*%
%TO.N,Net-(CR3-K)*%
X121285000Y-100965000D03*
%TO.P,C11,2*%
%TO.N,Net-(J3-VIDEO_S.)*%
X126285000Y-100965000D03*
%TD*%
D10*
%TO.P,R37,1*%
%TO.N,Net-(Q4-B)*%
X99695000Y-86995000D03*
D11*
%TO.P,R37,2*%
%TO.N,Net-(Q4-C)*%
X99695000Y-78105000D03*
%TD*%
D10*
%TO.P,R14,1*%
%TO.N,Net-(Q3-E)*%
X160655000Y-99695000D03*
D11*
%TO.P,R14,2*%
%TO.N,Net-(R14-Pad2)*%
X151765000Y-99695000D03*
%TD*%
D10*
%TO.P,R40,1*%
%TO.N,Net-(Q5-E)*%
X205740000Y-78740000D03*
D11*
%TO.P,R40,2*%
%TO.N,+5V*%
X196850000Y-78740000D03*
%TD*%
D10*
%TO.P,R13,1*%
%TO.N,+10V*%
X142875000Y-106680000D03*
D11*
%TO.P,R13,2*%
%TO.N,Net-(Q3-E)*%
X151765000Y-106680000D03*
%TD*%
D12*
%TO.P,C3,1*%
%TO.N,+5V*%
X178435000Y-104180000D03*
%TO.P,C3,2*%
%TO.N,GNDD*%
X178435000Y-109180000D03*
%TD*%
D16*
%TO.P,Q1,1,E*%
%TO.N,GNDD*%
X112924000Y-107950000D03*
D17*
%TO.P,Q1,2,B*%
%TO.N,Net-(Q1-B)*%
X114194000Y-109220000D03*
%TO.P,Q1,3,C*%
%TO.N,Net-(Q1-C)*%
X112924000Y-110490000D03*
%TD*%
D10*
%TO.P,R26,1*%
%TO.N,Net-(R19-Pad2)*%
X153670000Y-91440000D03*
D11*
%TO.P,R26,2*%
%TO.N,Net-(R14-Pad2)*%
X144780000Y-91440000D03*
%TD*%
D10*
%TO.P,R8,1*%
%TO.N,Net-(CR3-K)*%
X128270000Y-109220000D03*
D11*
%TO.P,R8,2*%
%TO.N,Net-(Q1-B)*%
X119380000Y-109220000D03*
%TD*%
D10*
%TO.P,R6,1*%
%TO.N,+10V*%
X133350000Y-92710000D03*
D11*
%TO.P,R6,2*%
%TO.N,Net-(C5-Pad1)*%
X133350000Y-83820000D03*
%TD*%
D12*
%TO.P,C10,1*%
%TO.N,Net-(J3-COLOR_R.)*%
X168315000Y-98425000D03*
%TO.P,C10,2*%
%TO.N,GNDD*%
X173315000Y-98425000D03*
%TD*%
%TO.P,L4,1,1*%
%TO.N,Net-(C19-Pad1)*%
X173355000Y-67310000D03*
D14*
%TO.P,L4,2,2*%
%TO.N,Net-(Q5-B)*%
X183515000Y-67310000D03*
%TD*%
D15*
%TO.P,TP1,1,1*%
%TO.N,Net-(J3-COLOR_R.)*%
X181356000Y-123190000D03*
%TD*%
D12*
%TO.P,R2,1*%
%TO.N,+10V*%
X119380000Y-118110000D03*
D14*
%TO.P,R2,2*%
%TO.N,Net-(J3-+12V)*%
X134620000Y-118110000D03*
%TD*%
D10*
%TO.P,R20,1*%
%TO.N,Net-(U4-Q3)*%
X153670000Y-73660000D03*
D11*
%TO.P,R20,2*%
%TO.N,Net-(R20-Pad2)*%
X144780000Y-73660000D03*
%TD*%
D10*
%TO.P,R31,1*%
%TO.N,+5V*%
X116205000Y-60325000D03*
D11*
%TO.P,R31,2*%
%TO.N,Net-(C17-Pad1)*%
X107315000Y-60325000D03*
%TD*%
D22*
%TO.P,CR3,1,K*%
%TO.N,Net-(CR3-K)*%
X127640000Y-104140000D03*
D23*
%TO.P,CR3,2,A*%
%TO.N,GNDD*%
X120020000Y-104140000D03*
%TD*%
D15*
%TO.P,C20,1*%
%TO.N,Net-(Q4-B)*%
X91186000Y-95250000D03*
%TO.P,C20,2*%
%TO.N,GNDD*%
X96393000Y-95250000D03*
%TD*%
D12*
%TO.P,C14,1*%
%TO.N,Net-(Q4-C)*%
X105450000Y-76200000D03*
%TO.P,C14,2*%
%TO.N,Net-(C14-Pad2)*%
X110450000Y-76200000D03*
%TD*%
D18*
%TO.P,R30,1,1*%
%TO.N,Net-(C17-Pad1)*%
X109260000Y-67310000D03*
%TO.P,R30,2,2*%
X111760000Y-64810000D03*
%TO.P,R30,3,3*%
%TO.N,Net-(R29-Pad2)*%
X114260000Y-67310000D03*
%TD*%
D10*
%TO.P,R5,1*%
%TO.N,GNDD*%
X113665000Y-93345000D03*
D11*
%TO.P,R5,2*%
%TO.N,Net-(C7-Pad1)*%
X113665000Y-84455000D03*
%TD*%
D10*
%TO.P,R44,1*%
%TO.N,Net-(C18-Pad2)*%
X159385000Y-64135000D03*
D11*
%TO.P,R44,2*%
%TO.N,Net-(C19-Pad1)*%
X168275000Y-64135000D03*
%TD*%
D12*
%TO.P,C8,1*%
%TO.N,Net-(C7-Pad2)*%
X110490000Y-90210000D03*
%TO.P,C8,2*%
%TO.N,GNDD*%
X110490000Y-95210000D03*
%TD*%
D10*
%TO.P,R17,1*%
%TO.N,Net-(L2-Pad1)*%
X144780000Y-71120000D03*
D11*
%TO.P,R17,2*%
%TO.N,Net-(U1A-Q)*%
X153670000Y-71120000D03*
%TD*%
D16*
%TO.P,Q6,1,E*%
%TO.N,Net-(Q6-E)*%
X190500000Y-85090000D03*
D17*
%TO.P,Q6,2,B*%
%TO.N,Net-(Q6-B)*%
X189230000Y-83820000D03*
%TO.P,Q6,3,C*%
%TO.N,+5V*%
X190500000Y-82550000D03*
%TD*%
D10*
%TO.P,R32,1*%
%TO.N,Net-(R15-Pad2)*%
X112395000Y-70485000D03*
D11*
%TO.P,R32,2*%
%TO.N,Net-(R32-Pad2)*%
X103505000Y-70485000D03*
%TD*%
D13*
%TO.P,U4,1,~{Mr}*%
%TO.N,Net-(J3-INTout)*%
X158760000Y-74920000D03*
D14*
%TO.P,U4,2,Q0*%
%TO.N,Net-(U4-Q0)*%
X158760000Y-77460000D03*
%TO.P,U4,3,~{Q0}*%
%TO.N,unconnected-(U4-~{Q0}-Pad3)*%
X158760000Y-80000000D03*
%TO.P,U4,4,D0*%
%TO.N,Net-(U3-Q6)*%
X158760000Y-82540000D03*
%TO.P,U4,5,D1*%
%TO.N,Net-(U3-Q3)*%
X158760000Y-85080000D03*
%TO.P,U4,6,~{Q1}*%
%TO.N,Net-(U4-~{Q1})*%
X158760000Y-87620000D03*
%TO.P,U4,7,Q1*%
%TO.N,Net-(U4-Q1)*%
X158760000Y-90160000D03*
%TO.P,U4,8,GND*%
%TO.N,GNDD*%
X158760000Y-92700000D03*
%TO.P,U4,9,Cp*%
%TO.N,Net-(J3-COLOR_R.)*%
X166380000Y-92700000D03*
%TO.P,U4,10,Q2*%
%TO.N,unconnected-(U4-Q2-Pad10)*%
X166380000Y-90160000D03*
%TO.P,U4,11,~{Q2}*%
%TO.N,Net-(U4-~{Q2})*%
X166380000Y-87620000D03*
%TO.P,U4,12,D2*%
%TO.N,Net-(U3-Q4)*%
X166380000Y-85080000D03*
%TO.P,U4,13,D3*%
%TO.N,Net-(U3-Q5)*%
X166380000Y-82540000D03*
%TO.P,U4,14,~{Q3}*%
%TO.N,Net-(U4-~{Q3})*%
X166380000Y-80000000D03*
%TO.P,U4,15,Q3*%
%TO.N,Net-(U4-Q3)*%
X166380000Y-77460000D03*
%TO.P,U4,16,VCC*%
%TO.N,+5V*%
X166380000Y-74920000D03*
%TD*%
D10*
%TO.P,R23,1*%
%TO.N,Net-(U4-~{Q2})*%
X153670000Y-83820000D03*
D11*
%TO.P,R23,2*%
%TO.N,Net-(R19-Pad2)*%
X144780000Y-83820000D03*
%TD*%
D10*
%TO.P,R27,1*%
%TO.N,Net-(R20-Pad2)*%
X153670000Y-81280000D03*
D11*
%TO.P,R27,2*%
%TO.N,Net-(R15-Pad2)*%
X144780000Y-81280000D03*
%TD*%
D16*
%TO.P,Q2,1,E*%
%TO.N,+10V*%
X133985000Y-113030000D03*
D17*
%TO.P,Q2,2,B*%
%TO.N,Net-(Q2-B)*%
X132715000Y-111760000D03*
%TO.P,Q2,3,C*%
%TO.N,Net-(Q2-C)*%
X133985000Y-110490000D03*
%TD*%
D16*
%TO.P,Q5,1,E*%
%TO.N,Net-(Q5-E)*%
X209825000Y-73660000D03*
D17*
%TO.P,Q5,2,B*%
%TO.N,Net-(Q5-B)*%
X211095000Y-74930000D03*
%TO.P,Q5,3,C*%
%TO.N,GNDD*%
X209825000Y-76200000D03*
%TD*%
D12*
%TO.P,C6,1*%
%TO.N,Net-(C6-Pad1)*%
X138390000Y-79375000D03*
%TO.P,C6,2*%
%TO.N,Net-(C6-Pad2)*%
X133390000Y-79375000D03*
%TD*%
D10*
%TO.P,R21,1*%
%TO.N,Net-(U4-Q0)*%
X153670000Y-78740000D03*
D11*
%TO.P,R21,2*%
%TO.N,Net-(R19-Pad2)*%
X144780000Y-78740000D03*
%TD*%
D10*
%TO.P,R28,1*%
%TO.N,Net-(C19-Pad1)*%
X173990000Y-64135000D03*
D11*
%TO.P,R28,2*%
%TO.N,Net-(Q5-B)*%
X182880000Y-64135000D03*
%TD*%
D12*
%TO.P,C5,1*%
%TO.N,Net-(C5-Pad1)*%
X138430000Y-86400000D03*
%TO.P,C5,2*%
%TO.N,GNDD*%
X138430000Y-91400000D03*
%TD*%
D15*
%TO.P,C19,1*%
%TO.N,Net-(C19-Pad1)*%
X185293000Y-73660000D03*
%TO.P,C19,2*%
%TO.N,Net-(Q5-B)*%
X190500000Y-73660000D03*
%TD*%
D10*
%TO.P,R10,1*%
%TO.N,Net-(Q1-C)*%
X119380000Y-111760000D03*
D11*
%TO.P,R10,2*%
%TO.N,Net-(Q2-B)*%
X128270000Y-111760000D03*
%TD*%
D15*
%TO.P,TP5,1,1*%
%TO.N,Net-(J3-DMAout)*%
X196596000Y-123190000D03*
%TD*%
D24*
%TO.P,J2,1,In*%
%TO.N,Net-(J2-In)*%
X206629000Y-119380000D03*
D25*
%TO.P,J2,2,Ext*%
%TO.N,GNDD*%
X201168000Y-120650000D03*
X206629000Y-111633000D03*
X212090000Y-120650000D03*
%TD*%
D10*
%TO.P,R38,1*%
%TO.N,GNDD*%
X205740000Y-73660000D03*
D11*
%TO.P,R38,2*%
%TO.N,Net-(Q5-B)*%
X196850000Y-73660000D03*
%TD*%
D10*
%TO.P,R39,1*%
%TO.N,Net-(Q5-B)*%
X205740000Y-76200000D03*
D11*
%TO.P,R39,2*%
%TO.N,+5V*%
X196850000Y-76200000D03*
%TD*%
D12*
%TO.P,C4,1*%
%TO.N,Net-(C4-Pad1)*%
X156885000Y-113030000D03*
%TO.P,C4,2*%
%TO.N,Net-(U1B-Q)*%
X161885000Y-113030000D03*
%TD*%
D10*
%TO.P,R3,1*%
%TO.N,+10V*%
X133350000Y-97155000D03*
D11*
%TO.P,R3,2*%
%TO.N,Net-(C4-Pad1)*%
X142240000Y-97155000D03*
%TD*%
D12*
%TO.P,R1,1*%
%TO.N,Net-(J3-+12V)*%
X137795000Y-118110000D03*
D14*
%TO.P,R1,2*%
%TO.N,+5V*%
X153035000Y-118110000D03*
%TD*%
D12*
%TO.P,L3,1,1*%
%TO.N,Net-(L3-Pad1)*%
X158750000Y-67310000D03*
D14*
%TO.P,L3,2,2*%
%TO.N,Net-(C18-Pad2)*%
X168910000Y-67310000D03*
%TD*%
D15*
%TO.P,TP3,1,1*%
%TO.N,Net-(J3-INTin)*%
X188976000Y-123190000D03*
%TD*%
D26*
%TO.P,Y1,1,1*%
%TO.N,Net-(Q4-C)*%
X96550000Y-80100000D03*
%TO.P,Y1,2,2*%
%TO.N,Net-(Q4-B)*%
X96550000Y-85000000D03*
%TD*%
D10*
%TO.P,R34,1*%
%TO.N,Net-(C17-Pad1)*%
X104775000Y-60325000D03*
D11*
%TO.P,R34,2*%
%TO.N,GNDD*%
X95885000Y-60325000D03*
%TD*%
D10*
%TO.P,R43,1*%
%TO.N,Net-(Q6-E)*%
X196850000Y-86360000D03*
D11*
%TO.P,R43,2*%
%TO.N,Net-(J2-In)*%
X205740000Y-86360000D03*
%TD*%
D13*
%TO.P,U2,1*%
%TO.N,Net-(C14-Pad2)*%
X118120000Y-74920000D03*
D14*
%TO.P,U2,2*%
%TO.N,GNDD*%
X118120000Y-77460000D03*
%TO.P,U2,3*%
%TO.N,unconnected-(U2-Pad3)*%
X118120000Y-80000000D03*
%TO.P,U2,4*%
%TO.N,Net-(C5-Pad1)*%
X118120000Y-82540000D03*
%TO.P,U2,5*%
%TO.N,unconnected-(U2-Pad5)*%
X118120000Y-85080000D03*
%TO.P,U2,6*%
%TO.N,Net-(R15-Pad2)*%
X118120000Y-87620000D03*
%TO.P,U2,7*%
%TO.N,Net-(R14-Pad2)*%
X118120000Y-90160000D03*
%TO.P,U2,8*%
%TO.N,unconnected-(U2-Pad8)*%
X118120000Y-92700000D03*
%TO.P,U2,9*%
%TO.N,Net-(C9-Pad2)*%
X125740000Y-92700000D03*
%TO.P,U2,10*%
%TO.N,Net-(C15-Pad1)*%
X125740000Y-90160000D03*
%TO.P,U2,11*%
%TO.N,Net-(C6-Pad1)*%
X125740000Y-87620000D03*
%TO.P,U2,12*%
%TO.N,Net-(C15-Pad1)*%
X125740000Y-85080000D03*
%TO.P,U2,13*%
%TO.N,Net-(C7-Pad1)*%
X125740000Y-82540000D03*
%TO.P,U2,14*%
%TO.N,+10V*%
X125740000Y-80000000D03*
%TO.P,U2,15*%
%TO.N,Net-(C6-Pad2)*%
X125740000Y-77460000D03*
%TO.P,U2,16*%
%TO.N,Net-(C4-Pad1)*%
X125740000Y-74920000D03*
%TD*%
D13*
%TO.P,C21,1*%
%TO.N,Net-(Q6-E)*%
X194945000Y-67945000D03*
D12*
%TO.P,C21,2*%
%TO.N,Net-(J1-Pin_2)*%
X198445000Y-67945000D03*
%TD*%
D16*
%TO.P,Q3,1,E*%
%TO.N,Net-(Q3-E)*%
X158115000Y-107950000D03*
D17*
%TO.P,Q3,2,B*%
%TO.N,Net-(Q3-B)*%
X159385000Y-106680000D03*
%TO.P,Q3,3,C*%
%TO.N,Net-(Q3-C)*%
X160655000Y-107950000D03*
%TD*%
D27*
%TO.N,GNDD*%
X81280000Y-93980000D03*
X81280000Y-105410000D03*
X210820000Y-62230000D03*
X214630000Y-97155000D03*
X85090000Y-62230000D03*
X89217500Y-90170000D03*
X100965000Y-124460000D03*
X81280000Y-71120000D03*
X214630000Y-85090000D03*
X201930000Y-58420000D03*
X93345000Y-74295000D03*
X84772500Y-120332500D03*
X214630000Y-73660000D03*
X81280000Y-82550000D03*
X214630000Y-108585000D03*
%TO.N,Net-(C4-Pad1)*%
X162560000Y-97155000D03*
X123190000Y-94615000D03*
%TO.N,+10V*%
X128270000Y-62230000D03*
%TO.N,+5V*%
X170180000Y-122682000D03*
%TO.N,Net-(J3-INTout)*%
X186055000Y-81280000D03*
%TO.N,Net-(J3-DMAout)*%
X187325000Y-88265000D03*
%TD*%
D28*
%TO.N,GNDD*%
X178435000Y-109180000D02*
X180935000Y-109180000D01*
X214630000Y-97155000D02*
X214630000Y-94615000D01*
X81280000Y-66040000D02*
X81280000Y-116840000D01*
X118120000Y-77460000D02*
X112325000Y-77460000D01*
D29*
X120020000Y-105087500D02*
X120020000Y-104140000D01*
D28*
X214630000Y-73660000D02*
X214630000Y-85090000D01*
X214630000Y-85090000D02*
X214630000Y-94615000D01*
X214630000Y-97155000D02*
X214630000Y-106045000D01*
X173315000Y-98425000D02*
X173355000Y-98385000D01*
D29*
X119380000Y-106680000D02*
X119380000Y-105727500D01*
D28*
X214630000Y-111760000D02*
X214630000Y-108585000D01*
X108712000Y-81073000D02*
X108712000Y-93432000D01*
X180975000Y-109220000D02*
X180975000Y-120015000D01*
X110165000Y-121610000D02*
X110165000Y-118110000D01*
X214630000Y-108585000D02*
X214630000Y-118110000D01*
X173355000Y-98385000D02*
X173355000Y-95250000D01*
X214503000Y-111633000D02*
X206629000Y-111633000D01*
X177292000Y-121158000D02*
X177800000Y-120650000D01*
X210185000Y-122555000D02*
X203073000Y-122555000D01*
D29*
X119380000Y-105727500D02*
X120020000Y-105087500D01*
D28*
X201930000Y-58420000D02*
X207010000Y-58420000D01*
X85090000Y-62230000D02*
X85090000Y-62230000D01*
X214630000Y-111760000D02*
X214503000Y-111633000D01*
X158760000Y-92700000D02*
X161310000Y-95250000D01*
X212090000Y-120650000D02*
X210185000Y-122555000D01*
X107315000Y-124460000D02*
X110165000Y-121610000D01*
X173990000Y-92710000D02*
X173990000Y-95250000D01*
X81280000Y-116840000D02*
X88900000Y-124460000D01*
X203073000Y-122555000D02*
X201168000Y-120650000D01*
X207010000Y-58420000D02*
X210820000Y-62230000D01*
X177800000Y-120650000D02*
X201168000Y-120650000D01*
X143510000Y-124460000D02*
X156535000Y-124460000D01*
X85090000Y-62230000D02*
X85090000Y-62230000D01*
X141605000Y-121920000D02*
X141605000Y-124460000D01*
X112325000Y-77460000D02*
X110410000Y-79375000D01*
X166380000Y-119375000D02*
X166370000Y-119385000D01*
X85090000Y-62230000D02*
X81280000Y-66040000D01*
X107315000Y-124460000D02*
X143510000Y-124460000D01*
X88900000Y-124460000D02*
X107315000Y-124460000D01*
X156535000Y-124460000D02*
X159385000Y-121610000D01*
X166370000Y-121158000D02*
X177292000Y-121158000D01*
X166370000Y-119385000D02*
X166370000Y-121158000D01*
X180935000Y-109180000D02*
X180975000Y-109220000D01*
X214630000Y-73660000D02*
X214630000Y-66040000D01*
X214630000Y-106045000D02*
X214630000Y-111760000D01*
X161310000Y-95250000D02*
X214630000Y-95250000D01*
X214630000Y-66040000D02*
X210820000Y-62230000D01*
X108712000Y-93432000D02*
X110490000Y-95210000D01*
X214630000Y-118110000D02*
X212090000Y-120650000D01*
X110410000Y-79375000D02*
X108712000Y-81073000D01*
D29*
%TO.N,Net-(Q2-B)*%
X132715000Y-111760000D02*
X128270000Y-111760000D01*
%TO.N,Net-(C4-Pad1)*%
X139700000Y-94615000D02*
X123190000Y-94615000D01*
X142240000Y-97155000D02*
X139700000Y-94615000D01*
X162560000Y-97155000D02*
X142240000Y-97155000D01*
%TO.N,Net-(C6-Pad2)*%
X133390000Y-79375000D02*
X127655000Y-79375000D01*
X133350000Y-76200000D02*
X133350000Y-79335000D01*
X133350000Y-79335000D02*
X133390000Y-79375000D01*
X127655000Y-79375000D02*
X125740000Y-77460000D01*
%TO.N,Net-(C5-Pad1)*%
X133340000Y-83830000D02*
X119410000Y-83830000D01*
X133350000Y-83820000D02*
X133340000Y-83830000D01*
X119410000Y-83830000D02*
X118120000Y-82540000D01*
%TO.N,Net-(C6-Pad1)*%
X138390000Y-84495000D02*
X135255000Y-87630000D01*
X128915000Y-87620000D02*
X125740000Y-87620000D01*
X138390000Y-79375000D02*
X138390000Y-84495000D01*
X128925000Y-87630000D02*
X128915000Y-87620000D01*
X135255000Y-87630000D02*
X128925000Y-87630000D01*
%TO.N,Net-(C7-Pad1)*%
X124480000Y-81280000D02*
X116840000Y-81280000D01*
X110530000Y-82590000D02*
X110490000Y-82590000D01*
X113665000Y-84455000D02*
X112395000Y-84455000D01*
X116840000Y-81280000D02*
X113665000Y-84455000D01*
X112395000Y-84455000D02*
X110530000Y-82590000D01*
X125740000Y-82540000D02*
X124480000Y-81280000D01*
%TO.N,Net-(C9-Pad2)*%
X130175000Y-92075000D02*
X128270000Y-92075000D01*
X127645000Y-92700000D02*
X125740000Y-92700000D01*
X128270000Y-92075000D02*
X127645000Y-92700000D01*
%TO.N,Net-(C13-Pad2)*%
X147955000Y-67310000D02*
X144780000Y-64135000D01*
X154305000Y-67310000D02*
X147955000Y-67310000D01*
D28*
%TO.N,+10V*%
X128270000Y-114300000D02*
X123190000Y-119380000D01*
X128270000Y-114300000D02*
X132715000Y-114300000D01*
X132715000Y-114300000D02*
X133985000Y-113030000D01*
X123190000Y-119380000D02*
X123190000Y-121920000D01*
X128270000Y-62230000D02*
X95885000Y-62230000D01*
X95885000Y-62230000D02*
X92710000Y-65405000D01*
%TO.N,+5V*%
X190500000Y-78740000D02*
X190500000Y-82550000D01*
D29*
X166380000Y-111755000D02*
X168920000Y-114295000D01*
X168920000Y-114295000D02*
X174000000Y-114295000D01*
X175895000Y-108570000D02*
X174000000Y-106675000D01*
D28*
X132715000Y-120015000D02*
X143827500Y-120015000D01*
X174000000Y-104135000D02*
X178390000Y-104135000D01*
X171450000Y-74920000D02*
X166380000Y-74920000D01*
D29*
X166380000Y-104135000D02*
X171460000Y-104135000D01*
X175895000Y-112400000D02*
X175895000Y-108570000D01*
D28*
X163957000Y-122682000D02*
X159385000Y-118110000D01*
X130810000Y-121920000D02*
X132715000Y-120015000D01*
X149225000Y-121920000D02*
X153035000Y-118110000D01*
X170180000Y-122682000D02*
X163957000Y-122682000D01*
D29*
X174000000Y-114295000D02*
X175895000Y-112400000D01*
D28*
X173990000Y-74920000D02*
X171450000Y-74920000D01*
X178390000Y-104135000D02*
X178435000Y-104180000D01*
X181610000Y-77470000D02*
X182880000Y-78740000D01*
X190500000Y-78740000D02*
X196850000Y-78740000D01*
X182880000Y-78740000D02*
X190500000Y-78740000D01*
X173990000Y-77470000D02*
X173990000Y-74920000D01*
X145732500Y-121920000D02*
X149225000Y-121920000D01*
D29*
X171460000Y-104135000D02*
X174000000Y-106675000D01*
D28*
X143827500Y-120015000D02*
X145732500Y-121920000D01*
X153035000Y-118110000D02*
X159385000Y-118110000D01*
X181610000Y-77470000D02*
X179060000Y-74920000D01*
X179060000Y-74920000D02*
X173990000Y-74920000D01*
D29*
%TO.N,Net-(Q6-B)*%
X189230000Y-83820000D02*
X194310000Y-83820000D01*
X194310000Y-83820000D02*
X196850000Y-81280000D01*
%TO.N,Net-(Q4-C)*%
X115570000Y-71755000D02*
X109895000Y-71755000D01*
X109895000Y-71755000D02*
X105450000Y-76200000D01*
X117475000Y-69850000D02*
X115570000Y-71755000D01*
%TO.N,Net-(C14-Pad2)*%
X113665000Y-76200000D02*
X114945000Y-74920000D01*
X114945000Y-74920000D02*
X118120000Y-74920000D01*
X110450000Y-76200000D02*
X113665000Y-76200000D01*
%TO.N,Net-(C15-Pad1)*%
X138430000Y-74215000D02*
X138430000Y-74295000D01*
X134620000Y-86360000D02*
X127020000Y-86360000D01*
X127020000Y-86360000D02*
X125740000Y-85080000D01*
X135890000Y-76835000D02*
X135890000Y-85090000D01*
X135890000Y-85090000D02*
X134620000Y-86360000D01*
X138430000Y-74295000D02*
X135890000Y-76835000D01*
%TO.N,Net-(C7-Pad2)*%
X110490000Y-90210000D02*
X113070000Y-90210000D01*
X113070000Y-90210000D02*
X120015000Y-97155000D01*
X120015000Y-97155000D02*
X127000000Y-97155000D01*
%TO.N,Net-(C17-Pad1)*%
X97830000Y-67270000D02*
X100330000Y-64770000D01*
X107315000Y-60325000D02*
X104775000Y-60325000D01*
X109260000Y-67310000D02*
X111760000Y-64810000D01*
%TO.N,Net-(C18-Pad2)*%
X162560000Y-67310000D02*
X159385000Y-64135000D01*
X168910000Y-67310000D02*
X162560000Y-67310000D01*
%TO.N,Net-(C19-Pad1)*%
X168275000Y-64135000D02*
X173990000Y-64135000D01*
%TO.N,Net-(J3-INTout)*%
X199085000Y-126695000D02*
X198120000Y-125730000D01*
X160962500Y-74920000D02*
X158760000Y-74920000D01*
X186055000Y-81280000D02*
X186035000Y-81300000D01*
X195326000Y-125730000D02*
X192786000Y-123190000D01*
X167640000Y-78740000D02*
X164782500Y-78740000D01*
X186035000Y-81300000D02*
X170200000Y-81300000D01*
X170200000Y-81300000D02*
X167640000Y-78740000D01*
X164782500Y-78740000D02*
X160962500Y-74920000D01*
X198120000Y-125730000D02*
X195326000Y-125730000D01*
X199085000Y-130533000D02*
X199085000Y-126695000D01*
%TO.N,Net-(Q1-B)*%
X114194000Y-109220000D02*
X119380000Y-109220000D01*
%TO.N,Net-(Q1-C)*%
X112924000Y-110490000D02*
X114194000Y-111760000D01*
X114194000Y-111760000D02*
X119380000Y-111760000D01*
X119380000Y-114300000D02*
X119380000Y-111760000D01*
%TO.N,Net-(Q2-C)*%
X133985000Y-110490000D02*
X137160000Y-110490000D01*
X137160000Y-110490000D02*
X138430000Y-111760000D01*
X138430000Y-111760000D02*
X142875000Y-111760000D01*
%TO.N,Net-(Q3-E)*%
X156845000Y-106680000D02*
X158115000Y-107950000D01*
X151765000Y-106680000D02*
X156845000Y-106680000D01*
%TO.N,Net-(Q3-B)*%
X159385000Y-106680000D02*
X159385000Y-108880000D01*
X159385000Y-108880000D02*
X156505000Y-111760000D01*
X156505000Y-111760000D02*
X151765000Y-111760000D01*
%TO.N,Net-(Q5-B)*%
X156210000Y-69215000D02*
X156210000Y-65405000D01*
X154940000Y-64135000D02*
X153670000Y-64135000D01*
X156210000Y-69215000D02*
X138430000Y-69215000D01*
X177165000Y-69215000D02*
X156210000Y-69215000D01*
X200025000Y-73660000D02*
X190500000Y-73660000D01*
X211095000Y-74930000D02*
X207010000Y-74930000D01*
X156210000Y-65405000D02*
X154940000Y-64135000D01*
X207010000Y-74930000D02*
X205740000Y-76200000D01*
X202565000Y-76200000D02*
X200025000Y-73660000D01*
X179070000Y-67310000D02*
X177165000Y-69215000D01*
X183515000Y-67310000D02*
X179070000Y-67310000D01*
X205740000Y-76200000D02*
X202565000Y-76200000D01*
%TO.N,Net-(Q6-E)*%
X190500000Y-85090000D02*
X191770000Y-86360000D01*
X191770000Y-86360000D02*
X196850000Y-86360000D01*
%TO.N,Net-(J3-DMAout)*%
X199517000Y-124587000D02*
X197993000Y-124587000D01*
X197993000Y-124587000D02*
X196596000Y-123190000D01*
X182880000Y-92710000D02*
X181610000Y-92710000D01*
X187325000Y-88265000D02*
X182880000Y-92710000D01*
X201625000Y-130533000D02*
X201625000Y-126695000D01*
X201625000Y-126695000D02*
X199517000Y-124587000D01*
%TO.N,Net-(U4-Q0)*%
X153670000Y-78740000D02*
X157480000Y-78740000D01*
X157480000Y-78740000D02*
X158760000Y-77460000D01*
%TO.N,Net-(U4-Q1)*%
X157500000Y-88900000D02*
X158760000Y-90160000D01*
X153670000Y-88900000D02*
X157500000Y-88900000D01*
%TO.N,Net-(U4-~{Q1})*%
X153670000Y-86360000D02*
X157500000Y-86360000D01*
X157500000Y-86360000D02*
X158760000Y-87620000D01*
%TO.N,Net-(U4-~{Q2})*%
X153670000Y-83820000D02*
X160655000Y-83820000D01*
X164455000Y-87620000D02*
X166380000Y-87620000D01*
X160655000Y-83820000D02*
X164455000Y-87620000D01*
%TO.N,Net-(U4-Q3)*%
X154940000Y-72390000D02*
X161310000Y-72390000D01*
X161310000Y-72390000D02*
X166380000Y-77460000D01*
X153670000Y-73660000D02*
X154940000Y-72390000D01*
%TO.N,Net-(Q5-E)*%
X205740000Y-81280000D02*
X205740000Y-78740000D01*
%TO.N,Net-(U1B-Q)*%
X169530000Y-115585000D02*
X169545000Y-115570000D01*
X164440000Y-115585000D02*
X169530000Y-115585000D01*
X169545000Y-115570000D02*
X170810000Y-116835000D01*
X161885000Y-113030000D02*
X164440000Y-115585000D01*
X170810000Y-116835000D02*
X174000000Y-116835000D01*
%TO.N,Net-(U4-~{Q3})*%
X160020000Y-76200000D02*
X163820000Y-80000000D01*
X163820000Y-80000000D02*
X166380000Y-80000000D01*
X153670000Y-76200000D02*
X160020000Y-76200000D01*
%TO.N,Net-(R14-Pad2)*%
X128270000Y-90170000D02*
X127030000Y-91410000D01*
X142240000Y-91440000D02*
X140950000Y-90150000D01*
X127030000Y-91410000D02*
X119370000Y-91410000D01*
X140950000Y-90150000D02*
X137912233Y-90150000D01*
X137912233Y-90150000D02*
X137892233Y-90170000D01*
X144780000Y-91440000D02*
X142240000Y-91440000D01*
X119370000Y-91410000D02*
X118120000Y-90160000D01*
X137892233Y-90170000D02*
X128270000Y-90170000D01*
%TO.N,Net-(R15-Pad2)*%
X119400000Y-88900000D02*
X140970000Y-88900000D01*
X142875000Y-86995000D02*
X142875000Y-83185000D01*
X118120000Y-87620000D02*
X119400000Y-88900000D01*
X142875000Y-83185000D02*
X144780000Y-81280000D01*
X140970000Y-88900000D02*
X142875000Y-86995000D01*
%TO.N,Net-(U3-Q3)*%
X169068750Y-90170000D02*
X173990000Y-90170000D01*
X162580000Y-88900000D02*
X167798750Y-88900000D01*
X167798750Y-88900000D02*
X169068750Y-90170000D01*
X158760000Y-85080000D02*
X162580000Y-88900000D01*
%TO.N,Net-(U3-Q4)*%
X170180000Y-88880000D02*
X180360000Y-88880000D01*
X180360000Y-88880000D02*
X181610000Y-87630000D01*
X166380000Y-85080000D02*
X170180000Y-88880000D01*
%TO.N,Net-(U3-Q5)*%
X180340000Y-86360000D02*
X181610000Y-85090000D01*
X166380000Y-82560000D02*
X170180000Y-86360000D01*
X170180000Y-86360000D02*
X180340000Y-86360000D01*
X166380000Y-82540000D02*
X166380000Y-82560000D01*
%TO.N,Net-(U3-Q6)*%
X160020000Y-81280000D02*
X167640000Y-81280000D01*
X158760000Y-82540000D02*
X160020000Y-81280000D01*
X167640000Y-81280000D02*
X170180000Y-83820000D01*
X180340000Y-83820000D02*
X181610000Y-82550000D01*
X170180000Y-83820000D02*
X180340000Y-83820000D01*
%TO.N,Net-(J1-Pin_2)*%
X87630000Y-63500000D02*
X87630000Y-65405000D01*
X92710000Y-58420000D02*
X87630000Y-63500000D01*
X198445000Y-67945000D02*
X198445000Y-66365000D01*
X190500000Y-58420000D02*
X92710000Y-58420000D01*
X198445000Y-66365000D02*
X190500000Y-58420000D01*
%TO.N,Net-(J3-VIDEO_S.)*%
X185928000Y-125730000D02*
X185166000Y-124968000D01*
X188925000Y-126568000D02*
X188087000Y-125730000D01*
X188925000Y-130533000D02*
X188925000Y-126568000D01*
X166380000Y-106675000D02*
X166360000Y-106675000D01*
X144145000Y-104775000D02*
X140335000Y-100965000D01*
X188087000Y-125730000D02*
X185928000Y-125730000D01*
X174000000Y-111755000D02*
X171460000Y-111755000D01*
X166360000Y-106675000D02*
X164460000Y-104775000D01*
X164460000Y-104775000D02*
X144145000Y-104775000D01*
X185166000Y-124968000D02*
X185166000Y-123190000D01*
X140335000Y-100965000D02*
X126285000Y-100965000D01*
X171460000Y-111755000D02*
X166380000Y-106675000D01*
%TO.N,Net-(CR3-K)*%
X127640000Y-104140000D02*
X124460000Y-104140000D01*
X124460000Y-104140000D02*
X121285000Y-100965000D01*
%TO.N,Net-(R19-Pad2)*%
X151130000Y-88900000D02*
X153670000Y-91440000D01*
X144780000Y-88900000D02*
X151130000Y-88900000D01*
%TO.N,Net-(R20-Pad2)*%
X153670000Y-81280000D02*
X148590000Y-86360000D01*
X146050000Y-73660000D02*
X153670000Y-81280000D01*
X144780000Y-73660000D02*
X146050000Y-73660000D01*
X148590000Y-86360000D02*
X144780000Y-86360000D01*
%TD*%
%TA.AperFunction,Conductor*%
%TO.N,GNDD*%
G36*
X85673885Y-61159044D02*
G01*
X85711485Y-61203067D01*
X85725000Y-61259362D01*
X85725000Y-63931000D01*
X85708387Y-63993000D01*
X85663000Y-64038387D01*
X85601000Y-64055000D01*
X85340000Y-64055000D01*
X85340000Y-66755000D01*
X85601000Y-66755000D01*
X85663000Y-66771613D01*
X85708387Y-66817000D01*
X85725000Y-66879000D01*
X85725000Y-67310000D01*
X95761000Y-67310000D01*
X95823000Y-67326613D01*
X95868387Y-67372000D01*
X95885000Y-67434000D01*
X95885000Y-78974509D01*
X95870989Y-79031766D01*
X95832123Y-79076084D01*
X95743122Y-79138402D01*
X95588402Y-79293122D01*
X95462898Y-79472361D01*
X95370425Y-79670668D01*
X95313792Y-79882025D01*
X95294722Y-80100000D01*
X95313792Y-80317974D01*
X95370425Y-80529331D01*
X95401134Y-80595186D01*
X95462898Y-80727639D01*
X95588402Y-80906877D01*
X95588405Y-80906880D01*
X95743123Y-81061598D01*
X95832124Y-81123918D01*
X95870989Y-81168235D01*
X95885000Y-81225492D01*
X95885000Y-83874509D01*
X95870989Y-83931766D01*
X95832123Y-83976084D01*
X95743122Y-84038402D01*
X95588402Y-84193122D01*
X95462898Y-84372361D01*
X95370425Y-84570668D01*
X95313792Y-84782025D01*
X95294722Y-84999999D01*
X95313792Y-85217974D01*
X95340243Y-85316692D01*
X95370425Y-85429330D01*
X95462898Y-85627639D01*
X95588402Y-85806877D01*
X95588405Y-85806880D01*
X95743123Y-85961598D01*
X95832124Y-86023918D01*
X95870989Y-86068235D01*
X95885000Y-86125492D01*
X95885000Y-93749932D01*
X95874556Y-93799742D01*
X95844983Y-93841161D01*
X95801264Y-93867213D01*
X95788391Y-93871632D01*
X95569764Y-93989946D01*
X95522942Y-94026388D01*
X95522942Y-94026390D01*
X95885000Y-94388448D01*
X95885000Y-94615000D01*
X96111553Y-94615000D01*
X96393000Y-94896447D01*
X97616434Y-96119882D01*
X97716730Y-95966369D01*
X97816586Y-95738721D01*
X97877613Y-95497732D01*
X97898141Y-95250000D01*
X97877613Y-95002262D01*
X97818654Y-94769441D01*
X97817498Y-94713554D01*
X97841005Y-94662838D01*
X97884398Y-94627600D01*
X97938859Y-94615000D01*
X109141970Y-94615000D01*
X109196814Y-94627788D01*
X109240346Y-94663514D01*
X109263587Y-94714809D01*
X109261745Y-94771094D01*
X109204858Y-94983397D01*
X109185033Y-95209999D01*
X109204858Y-95436602D01*
X109263733Y-95656326D01*
X109359866Y-95862484D01*
X109410972Y-95935471D01*
X109410973Y-95935472D01*
X110402318Y-94944127D01*
X110457905Y-94912033D01*
X110522093Y-94912033D01*
X110577680Y-94944127D01*
X111569025Y-95935472D01*
X111620134Y-95862480D01*
X111716266Y-95656326D01*
X111775141Y-95436602D01*
X111794966Y-95209999D01*
X111775141Y-94983397D01*
X111718255Y-94771094D01*
X111716413Y-94714809D01*
X111739654Y-94663514D01*
X111783186Y-94627788D01*
X111838030Y-94615000D01*
X116362271Y-94615000D01*
X116409724Y-94624439D01*
X116449952Y-94651319D01*
X117438681Y-95640048D01*
X117465561Y-95680276D01*
X117475000Y-95727729D01*
X117475000Y-95822072D01*
X117459714Y-95881714D01*
X117417626Y-95926652D01*
X117359111Y-95945806D01*
X117298597Y-95934455D01*
X117286327Y-95928733D01*
X117090000Y-95876128D01*
X117090000Y-98433871D01*
X117286327Y-98381266D01*
X117298597Y-98375545D01*
X117359111Y-98364194D01*
X117417626Y-98383348D01*
X117459714Y-98428286D01*
X117475000Y-98487928D01*
X117475000Y-108345500D01*
X117458387Y-108407500D01*
X117413000Y-108452887D01*
X117351000Y-108469500D01*
X115126523Y-108469500D01*
X115081729Y-108461127D01*
X115042985Y-108437137D01*
X114890304Y-108297949D01*
X114715723Y-108189853D01*
X114709019Y-108185702D01*
X114709017Y-108185701D01*
X114510198Y-108108679D01*
X114510197Y-108108678D01*
X114300610Y-108069500D01*
X114087390Y-108069500D01*
X113958826Y-108093533D01*
X113877801Y-108108679D01*
X113668266Y-108189853D01*
X113667075Y-108186778D01*
X113620608Y-108200000D01*
X111774000Y-108200000D01*
X111774000Y-108647824D01*
X111780402Y-108707375D01*
X111830647Y-108842089D01*
X111916811Y-108957188D01*
X112031910Y-109043352D01*
X112166624Y-109093597D01*
X112226176Y-109100000D01*
X112760430Y-109100000D01*
X112819094Y-109114754D01*
X112863797Y-109155507D01*
X112883901Y-109212559D01*
X112874622Y-109272333D01*
X112838169Y-109320606D01*
X112783217Y-109345888D01*
X112652258Y-109370368D01*
X112607801Y-109378679D01*
X112408982Y-109455701D01*
X112227698Y-109567947D01*
X112070126Y-109711594D01*
X111941631Y-109881747D01*
X111846595Y-110072609D01*
X111788243Y-110277689D01*
X111768571Y-110489999D01*
X111788243Y-110702310D01*
X111846595Y-110907390D01*
X111941631Y-111098252D01*
X111967225Y-111132143D01*
X112070128Y-111268407D01*
X112227698Y-111412052D01*
X112408981Y-111524298D01*
X112607802Y-111601321D01*
X112817390Y-111640500D01*
X112961771Y-111640500D01*
X113009224Y-111649939D01*
X113049452Y-111676819D01*
X113618267Y-112245634D01*
X113630048Y-112259266D01*
X113644387Y-112278526D01*
X113644390Y-112278530D01*
X113682355Y-112310386D01*
X113690317Y-112317684D01*
X113694224Y-112321591D01*
X113718542Y-112340819D01*
X113721298Y-112343063D01*
X113778786Y-112391302D01*
X113778788Y-112391303D01*
X113779757Y-112392116D01*
X113796177Y-112402576D01*
X113797321Y-112403109D01*
X113797323Y-112403111D01*
X113865357Y-112434835D01*
X113868456Y-112436335D01*
X113930681Y-112467586D01*
X113936704Y-112470611D01*
X113955084Y-112476998D01*
X113956321Y-112477253D01*
X113956327Y-112477256D01*
X114029862Y-112492439D01*
X114033209Y-112493181D01*
X114106279Y-112510500D01*
X114106281Y-112510500D01*
X114107505Y-112510790D01*
X114126876Y-112512769D01*
X114128140Y-112512732D01*
X114128144Y-112512733D01*
X114203110Y-112510552D01*
X114206716Y-112510500D01*
X117351000Y-112510500D01*
X117413000Y-112527113D01*
X117458387Y-112572500D01*
X117475000Y-112634500D01*
X117475000Y-115570000D01*
X125285716Y-115570000D01*
X125342011Y-115583515D01*
X125386034Y-115621115D01*
X125408189Y-115674602D01*
X125403647Y-115732318D01*
X125373397Y-115781681D01*
X122492646Y-118662432D01*
X122490399Y-118664623D01*
X122426948Y-118724939D01*
X122393244Y-118773362D01*
X122387573Y-118780882D01*
X122350301Y-118826593D01*
X122336210Y-118853566D01*
X122328082Y-118866983D01*
X122310705Y-118891950D01*
X122287439Y-118946165D01*
X122283399Y-118954671D01*
X122256090Y-119006952D01*
X122247720Y-119036201D01*
X122242459Y-119050978D01*
X122230460Y-119078942D01*
X122218587Y-119136713D01*
X122216342Y-119145860D01*
X122200113Y-119202580D01*
X122197802Y-119232925D01*
X122195622Y-119248466D01*
X122189500Y-119278259D01*
X122189500Y-119337242D01*
X122189141Y-119346656D01*
X122184769Y-119404091D01*
X122184663Y-119405477D01*
X122188506Y-119435651D01*
X122189500Y-119451317D01*
X122189500Y-120582820D01*
X122176384Y-120638324D01*
X122139812Y-120682085D01*
X122124884Y-120693261D01*
X122032454Y-120762453D01*
X121946204Y-120877668D01*
X121895909Y-121012515D01*
X121895909Y-121012517D01*
X121891684Y-121051819D01*
X121889500Y-121072130D01*
X121889500Y-122767869D01*
X121893171Y-122802012D01*
X121895909Y-122827483D01*
X121946204Y-122962331D01*
X122032454Y-123077546D01*
X122147669Y-123163796D01*
X122282517Y-123214091D01*
X122342127Y-123220500D01*
X124037872Y-123220499D01*
X124097483Y-123214091D01*
X124232331Y-123163796D01*
X124347546Y-123077546D01*
X124433796Y-122962331D01*
X124484091Y-122827483D01*
X124490500Y-122767873D01*
X124490499Y-121919999D01*
X129504531Y-121919999D01*
X129524364Y-122146689D01*
X129583261Y-122366497D01*
X129679432Y-122572735D01*
X129809953Y-122759140D01*
X129970859Y-122920046D01*
X130157264Y-123050567D01*
X130157265Y-123050567D01*
X130157266Y-123050568D01*
X130363504Y-123146739D01*
X130583308Y-123205635D01*
X130810000Y-123225468D01*
X131036692Y-123205635D01*
X131256496Y-123146739D01*
X131462734Y-123050568D01*
X131649139Y-122920047D01*
X131810047Y-122759139D01*
X131940568Y-122572734D01*
X132036739Y-122366496D01*
X132089390Y-122170000D01*
X140326128Y-122170000D01*
X140378733Y-122366326D01*
X140474865Y-122572480D01*
X140605341Y-122758819D01*
X140766180Y-122919658D01*
X140952519Y-123050134D01*
X141158673Y-123146266D01*
X141354999Y-123198871D01*
X141355000Y-123198872D01*
X141355000Y-122170000D01*
X141855000Y-122170000D01*
X141855000Y-123198871D01*
X142051326Y-123146266D01*
X142257480Y-123050134D01*
X142443819Y-122919658D01*
X142604658Y-122758819D01*
X142735134Y-122572480D01*
X142831266Y-122366326D01*
X142883872Y-122170000D01*
X141855000Y-122170000D01*
X141355000Y-122170000D01*
X140326128Y-122170000D01*
X132089390Y-122170000D01*
X132095635Y-122146692D01*
X132101040Y-122084905D01*
X132112185Y-122043309D01*
X132136884Y-122008035D01*
X133093101Y-121051818D01*
X133133329Y-121024939D01*
X133180782Y-121015500D01*
X140413129Y-121015500D01*
X140477457Y-121033491D01*
X140523118Y-121082243D01*
X140536863Y-121147610D01*
X140514704Y-121210624D01*
X140474865Y-121267519D01*
X140378733Y-121473673D01*
X140326128Y-121669999D01*
X140326128Y-121670000D01*
X142883872Y-121670000D01*
X142883871Y-121669999D01*
X142831266Y-121473673D01*
X142735134Y-121267519D01*
X142695296Y-121210624D01*
X142673137Y-121147610D01*
X142686882Y-121082243D01*
X142732543Y-121033491D01*
X142796871Y-121015500D01*
X143361717Y-121015500D01*
X143409170Y-121024939D01*
X143449398Y-121051819D01*
X145014931Y-122617351D01*
X145017124Y-122619600D01*
X145077442Y-122683054D01*
X145125862Y-122716755D01*
X145133371Y-122722416D01*
X145179093Y-122759698D01*
X145206062Y-122773785D01*
X145219482Y-122781916D01*
X145244449Y-122799294D01*
X145244450Y-122799294D01*
X145244451Y-122799295D01*
X145250782Y-122802012D01*
X145298663Y-122822559D01*
X145307163Y-122826595D01*
X145359451Y-122853909D01*
X145388696Y-122862277D01*
X145403486Y-122867543D01*
X145410964Y-122870752D01*
X145431442Y-122879540D01*
X145489237Y-122891416D01*
X145498354Y-122893654D01*
X145555082Y-122909887D01*
X145585416Y-122912196D01*
X145600953Y-122914374D01*
X145630759Y-122920500D01*
X145689742Y-122920500D01*
X145699156Y-122920858D01*
X145757976Y-122925337D01*
X145788151Y-122921493D01*
X145803817Y-122920500D01*
X147887820Y-122920500D01*
X147943324Y-122933616D01*
X147987087Y-122970189D01*
X148047257Y-123050567D01*
X148067454Y-123077546D01*
X148182669Y-123163796D01*
X148317517Y-123214091D01*
X148377127Y-123220500D01*
X150072872Y-123220499D01*
X150132483Y-123214091D01*
X150267331Y-123163796D01*
X150382546Y-123077546D01*
X150468796Y-122962331D01*
X150519091Y-122827483D01*
X150525500Y-122767873D01*
X150525500Y-122689026D01*
X158659526Y-122689026D01*
X158732515Y-122740133D01*
X158938673Y-122836266D01*
X159158397Y-122895141D01*
X159385000Y-122914966D01*
X159611602Y-122895141D01*
X159831326Y-122836266D01*
X160037480Y-122740134D01*
X160110472Y-122689025D01*
X159385001Y-121963553D01*
X159385000Y-121963553D01*
X158659526Y-122689025D01*
X158659526Y-122689026D01*
X150525500Y-122689026D01*
X150525499Y-122085781D01*
X150534938Y-122038329D01*
X150561815Y-121998104D01*
X150949920Y-121609999D01*
X158080033Y-121609999D01*
X158099858Y-121836602D01*
X158158733Y-122056326D01*
X158254866Y-122262484D01*
X158305972Y-122335471D01*
X158305974Y-122335472D01*
X159031446Y-121610001D01*
X159031446Y-121610000D01*
X158305973Y-120884526D01*
X158305973Y-120884527D01*
X158254865Y-120957516D01*
X158158733Y-121163672D01*
X158099858Y-121383397D01*
X158080033Y-121609999D01*
X150949920Y-121609999D01*
X153123035Y-119436884D01*
X153158309Y-119412185D01*
X153199907Y-119401040D01*
X153219066Y-119399363D01*
X153261692Y-119395635D01*
X153481496Y-119336739D01*
X153687734Y-119240568D01*
X153841466Y-119132924D01*
X153875301Y-119116239D01*
X153912588Y-119110500D01*
X158047820Y-119110500D01*
X158103324Y-119123616D01*
X158147085Y-119160187D01*
X158191004Y-119218855D01*
X158215776Y-119251947D01*
X158227454Y-119267546D01*
X158342669Y-119353796D01*
X158477517Y-119404091D01*
X158537127Y-119410500D01*
X159219216Y-119410499D01*
X159266669Y-119419938D01*
X159306897Y-119446818D01*
X160106953Y-120246874D01*
X160140094Y-120306661D01*
X160136516Y-120374925D01*
X160097308Y-120430921D01*
X160034384Y-120457631D01*
X159966867Y-120446937D01*
X159831327Y-120383733D01*
X159611602Y-120324858D01*
X159385000Y-120305033D01*
X159158397Y-120324858D01*
X158938672Y-120383733D01*
X158732516Y-120479865D01*
X158659526Y-120530973D01*
X160464025Y-122335472D01*
X160515134Y-122262480D01*
X160611266Y-122056326D01*
X160670141Y-121836602D01*
X160689966Y-121609999D01*
X160670141Y-121383397D01*
X160611266Y-121163673D01*
X160548062Y-121028132D01*
X160537368Y-120960615D01*
X160564078Y-120897691D01*
X160620073Y-120858483D01*
X160688338Y-120854905D01*
X160748125Y-120888046D01*
X163239450Y-123379371D01*
X163241643Y-123381620D01*
X163301942Y-123445054D01*
X163350349Y-123478746D01*
X163357869Y-123484415D01*
X163403592Y-123521698D01*
X163430565Y-123535787D01*
X163443983Y-123543917D01*
X163468951Y-123561295D01*
X163507851Y-123577988D01*
X163523151Y-123584554D01*
X163531661Y-123588596D01*
X163583947Y-123615907D01*
X163583951Y-123615909D01*
X163613200Y-123624277D01*
X163627970Y-123629535D01*
X163655942Y-123641540D01*
X163655945Y-123641540D01*
X163655946Y-123641541D01*
X163713726Y-123653414D01*
X163722869Y-123655657D01*
X163779582Y-123671886D01*
X163809920Y-123674196D01*
X163825448Y-123676373D01*
X163855259Y-123682500D01*
X163914244Y-123682500D01*
X163923659Y-123682858D01*
X163927806Y-123683173D01*
X163982476Y-123687337D01*
X164009278Y-123683923D01*
X164012652Y-123683494D01*
X164028317Y-123682500D01*
X169692970Y-123682500D01*
X169737763Y-123690873D01*
X169877544Y-123745024D01*
X170078024Y-123782500D01*
X170281974Y-123782500D01*
X170281976Y-123782500D01*
X170482456Y-123745024D01*
X170672637Y-123671348D01*
X170846041Y-123563981D01*
X170892424Y-123521697D01*
X170996763Y-123426580D01*
X171119675Y-123263818D01*
X171169480Y-123163795D01*
X171210582Y-123081250D01*
X171266397Y-122885083D01*
X171285215Y-122682000D01*
X171266397Y-122478917D01*
X171264825Y-122473393D01*
X171225583Y-122335472D01*
X171210582Y-122282750D01*
X171191525Y-122244478D01*
X171119675Y-122100181D01*
X170996763Y-121937419D01*
X170846041Y-121800018D01*
X170672638Y-121692652D01*
X170482457Y-121618976D01*
X170415629Y-121606484D01*
X170281976Y-121581500D01*
X170078024Y-121581500D01*
X169977783Y-121600238D01*
X169877542Y-121618976D01*
X169737763Y-121673127D01*
X169692970Y-121681500D01*
X164422783Y-121681500D01*
X164375330Y-121672061D01*
X164335102Y-121645181D01*
X162314920Y-119625000D01*
X165101128Y-119625000D01*
X165153733Y-119821326D01*
X165249865Y-120027480D01*
X165380341Y-120213819D01*
X165541180Y-120374658D01*
X165727519Y-120505134D01*
X165933673Y-120601266D01*
X166129999Y-120653871D01*
X166130000Y-120653872D01*
X166130000Y-119625000D01*
X166630000Y-119625000D01*
X166630000Y-120653871D01*
X166826326Y-120601266D01*
X167032480Y-120505134D01*
X167218819Y-120374658D01*
X167379658Y-120213819D01*
X167510134Y-120027480D01*
X167606266Y-119821326D01*
X167658872Y-119625000D01*
X166630000Y-119625000D01*
X166130000Y-119625000D01*
X165101128Y-119625000D01*
X162314920Y-119625000D01*
X160721818Y-118031898D01*
X160694938Y-117991670D01*
X160685499Y-117944217D01*
X160685499Y-117262130D01*
X160685499Y-117262127D01*
X160679091Y-117202517D01*
X160628796Y-117067669D01*
X160542546Y-116952454D01*
X160427331Y-116866204D01*
X160292483Y-116815909D01*
X160232873Y-116809500D01*
X160232869Y-116809500D01*
X158537130Y-116809500D01*
X158477515Y-116815909D01*
X158342669Y-116866204D01*
X158227453Y-116952454D01*
X158147087Y-117059811D01*
X158103324Y-117096384D01*
X158047820Y-117109500D01*
X153912588Y-117109500D01*
X153875301Y-117103761D01*
X153841465Y-117087075D01*
X153813750Y-117067669D01*
X153687734Y-116979432D01*
X153629880Y-116952454D01*
X153481497Y-116883261D01*
X153261689Y-116824364D01*
X153035000Y-116804531D01*
X152808310Y-116824364D01*
X152588502Y-116883261D01*
X152382264Y-116979432D01*
X152195859Y-117109953D01*
X152034953Y-117270859D01*
X151904432Y-117457264D01*
X151808261Y-117663503D01*
X151749365Y-117883308D01*
X151743959Y-117945094D01*
X151732813Y-117986690D01*
X151708112Y-118021966D01*
X149146897Y-120583181D01*
X149106669Y-120610061D01*
X149059216Y-120619500D01*
X148377130Y-120619500D01*
X148317515Y-120625909D01*
X148182669Y-120676204D01*
X148067453Y-120762454D01*
X147987087Y-120869811D01*
X147943324Y-120906384D01*
X147887820Y-120919500D01*
X146198282Y-120919500D01*
X146150829Y-120910061D01*
X146110601Y-120883181D01*
X144545067Y-119317647D01*
X144542912Y-119315438D01*
X144482559Y-119251947D01*
X144434140Y-119218246D01*
X144426618Y-119212575D01*
X144414360Y-119202580D01*
X144380907Y-119175302D01*
X144380908Y-119175302D01*
X144380905Y-119175300D01*
X144353940Y-119161215D01*
X144340519Y-119153084D01*
X144315549Y-119135705D01*
X144315548Y-119135704D01*
X144315546Y-119135703D01*
X144261345Y-119112443D01*
X144252836Y-119108402D01*
X144200553Y-119081092D01*
X144193039Y-119078942D01*
X144171298Y-119072721D01*
X144156520Y-119067459D01*
X144128558Y-119055460D01*
X144070772Y-119043583D01*
X144061628Y-119041338D01*
X144004921Y-119025113D01*
X143974575Y-119022802D01*
X143959034Y-119020622D01*
X143929242Y-119014500D01*
X143929241Y-119014500D01*
X143870258Y-119014500D01*
X143860844Y-119014142D01*
X143835892Y-119012242D01*
X143802024Y-119009663D01*
X143802023Y-119009663D01*
X143771849Y-119013506D01*
X143756183Y-119014500D01*
X138987482Y-119014500D01*
X138923154Y-118996509D01*
X138877493Y-118947757D01*
X138863747Y-118882391D01*
X138885905Y-118819378D01*
X138925568Y-118762734D01*
X139021739Y-118556496D01*
X139080635Y-118336692D01*
X139100468Y-118110000D01*
X139080635Y-117883308D01*
X139021739Y-117663504D01*
X138925568Y-117457266D01*
X138898143Y-117418099D01*
X138795046Y-117270859D01*
X138634140Y-117109953D01*
X138447735Y-116979432D01*
X138241497Y-116883261D01*
X138021689Y-116824364D01*
X137795000Y-116804531D01*
X137568310Y-116824364D01*
X137348502Y-116883261D01*
X137142264Y-116979432D01*
X136955859Y-117109953D01*
X136794953Y-117270859D01*
X136664432Y-117457264D01*
X136568261Y-117663502D01*
X136509364Y-117883310D01*
X136489531Y-118109999D01*
X136509364Y-118336689D01*
X136568261Y-118556497D01*
X136664315Y-118762484D01*
X136664432Y-118762734D01*
X136704094Y-118819378D01*
X136726253Y-118882391D01*
X136712507Y-118947757D01*
X136666846Y-118996509D01*
X136602518Y-119014500D01*
X135812482Y-119014500D01*
X135748154Y-118996509D01*
X135702493Y-118947757D01*
X135688747Y-118882391D01*
X135710905Y-118819378D01*
X135750568Y-118762734D01*
X135846739Y-118556496D01*
X135905635Y-118336692D01*
X135925468Y-118110000D01*
X135905635Y-117883308D01*
X135846739Y-117663504D01*
X135750568Y-117457266D01*
X135723143Y-117418099D01*
X135620046Y-117270859D01*
X135459140Y-117109953D01*
X135272735Y-116979432D01*
X135066497Y-116883261D01*
X134846689Y-116824364D01*
X134620000Y-116804531D01*
X134393310Y-116824364D01*
X134173502Y-116883261D01*
X133967264Y-116979432D01*
X133780859Y-117109953D01*
X133619953Y-117270859D01*
X133489432Y-117457264D01*
X133393261Y-117663502D01*
X133334364Y-117883310D01*
X133314531Y-118109999D01*
X133334364Y-118336689D01*
X133393261Y-118556497D01*
X133489315Y-118762484D01*
X133489432Y-118762734D01*
X133529094Y-118819378D01*
X133551253Y-118882391D01*
X133537507Y-118947757D01*
X133491846Y-118996509D01*
X133427518Y-119014500D01*
X132729279Y-119014500D01*
X132726137Y-119014460D01*
X132638637Y-119012242D01*
X132580580Y-119022648D01*
X132571251Y-119023957D01*
X132512562Y-119029926D01*
X132483527Y-119039035D01*
X132468290Y-119042774D01*
X132438346Y-119048141D01*
X132383568Y-119070021D01*
X132374698Y-119073179D01*
X132318414Y-119090839D01*
X132291819Y-119105601D01*
X132277641Y-119112334D01*
X132249385Y-119123620D01*
X132200122Y-119156087D01*
X132192066Y-119160967D01*
X132140495Y-119189591D01*
X132117406Y-119209412D01*
X132104883Y-119218855D01*
X132079484Y-119235596D01*
X132037782Y-119277297D01*
X132030875Y-119283698D01*
X131986104Y-119322134D01*
X131967480Y-119346194D01*
X131957107Y-119357971D01*
X130721966Y-120593112D01*
X130686690Y-120617813D01*
X130645094Y-120628958D01*
X130583307Y-120634365D01*
X130583308Y-120634365D01*
X130363503Y-120693261D01*
X130157264Y-120789432D01*
X129970859Y-120919953D01*
X129809953Y-121080859D01*
X129679432Y-121267264D01*
X129583261Y-121473502D01*
X129524364Y-121693310D01*
X129504531Y-121919999D01*
X124490499Y-121919999D01*
X124490499Y-121072128D01*
X124484091Y-121012517D01*
X124433796Y-120877669D01*
X124347546Y-120762454D01*
X124240187Y-120682085D01*
X124203616Y-120638324D01*
X124190500Y-120582820D01*
X124190500Y-119845783D01*
X124199939Y-119798330D01*
X124226819Y-119758102D01*
X127196282Y-116788638D01*
X128378600Y-115606318D01*
X128418828Y-115579439D01*
X128466281Y-115570000D01*
X163312271Y-115570000D01*
X163359724Y-115579439D01*
X163399952Y-115606319D01*
X163864267Y-116070634D01*
X163876048Y-116084266D01*
X163890389Y-116103529D01*
X163928339Y-116135373D01*
X163936313Y-116142680D01*
X163940224Y-116146591D01*
X163958672Y-116161178D01*
X163964543Y-116165820D01*
X163967330Y-116168090D01*
X164024786Y-116216302D01*
X164024788Y-116216303D01*
X164025750Y-116217110D01*
X164042180Y-116227578D01*
X164043322Y-116228110D01*
X164043323Y-116228111D01*
X164111350Y-116259832D01*
X164114527Y-116261371D01*
X164181567Y-116295040D01*
X164182702Y-116295610D01*
X164201085Y-116301999D01*
X164202322Y-116302254D01*
X164202328Y-116302257D01*
X164275852Y-116317437D01*
X164279286Y-116318199D01*
X164325566Y-116329168D01*
X164353506Y-116335791D01*
X164372879Y-116337770D01*
X164374141Y-116337733D01*
X164374145Y-116337734D01*
X164446534Y-116335627D01*
X164449132Y-116335552D01*
X164452738Y-116335500D01*
X165005863Y-116335500D01*
X165060707Y-116348288D01*
X165104239Y-116384013D01*
X165127480Y-116435309D01*
X165125638Y-116491593D01*
X165094364Y-116608308D01*
X165074531Y-116835000D01*
X165094364Y-117061689D01*
X165153261Y-117281497D01*
X165249432Y-117487735D01*
X165379953Y-117674140D01*
X165540859Y-117835046D01*
X165727264Y-117965567D01*
X165727265Y-117965567D01*
X165727266Y-117965568D01*
X165785865Y-117992893D01*
X165838040Y-118038650D01*
X165857460Y-118105274D01*
X165838041Y-118171899D01*
X165785866Y-118217656D01*
X165727522Y-118244863D01*
X165541180Y-118375341D01*
X165380341Y-118536180D01*
X165249865Y-118722519D01*
X165153733Y-118928673D01*
X165101128Y-119124999D01*
X165101128Y-119125000D01*
X167658872Y-119125000D01*
X167658871Y-119124999D01*
X167606266Y-118928673D01*
X167510134Y-118722519D01*
X167379658Y-118536180D01*
X167218819Y-118375341D01*
X167032482Y-118244866D01*
X166974133Y-118217657D01*
X166921958Y-118171899D01*
X166902539Y-118105274D01*
X166921959Y-118038649D01*
X166974134Y-117992893D01*
X167032734Y-117965568D01*
X167219139Y-117835047D01*
X167380047Y-117674139D01*
X167510568Y-117487734D01*
X167606739Y-117281496D01*
X167665635Y-117061692D01*
X167685468Y-116835000D01*
X167665635Y-116608308D01*
X167634362Y-116491593D01*
X167632520Y-116435309D01*
X167655761Y-116384013D01*
X167699293Y-116348288D01*
X167754137Y-116335500D01*
X169197770Y-116335500D01*
X169245223Y-116344939D01*
X169285451Y-116371819D01*
X170234267Y-117320634D01*
X170246048Y-117334266D01*
X170260390Y-117353530D01*
X170298355Y-117385386D01*
X170306317Y-117392684D01*
X170310224Y-117396591D01*
X170334542Y-117415819D01*
X170337298Y-117418063D01*
X170394786Y-117466302D01*
X170394788Y-117466303D01*
X170395757Y-117467116D01*
X170412177Y-117477576D01*
X170413321Y-117478109D01*
X170413323Y-117478111D01*
X170481357Y-117509835D01*
X170484456Y-117511335D01*
X170551567Y-117545040D01*
X170552704Y-117545611D01*
X170571084Y-117551998D01*
X170572321Y-117552253D01*
X170572327Y-117552256D01*
X170645862Y-117567439D01*
X170649209Y-117568181D01*
X170722279Y-117585500D01*
X170722281Y-117585500D01*
X170723505Y-117585790D01*
X170742876Y-117587769D01*
X170744140Y-117587732D01*
X170744144Y-117587733D01*
X170819110Y-117585552D01*
X170822716Y-117585500D01*
X172873337Y-117585500D01*
X172930594Y-117599511D01*
X172974912Y-117638377D01*
X172999953Y-117674140D01*
X173160859Y-117835046D01*
X173316773Y-117944217D01*
X173347266Y-117965568D01*
X173405273Y-117992617D01*
X173457449Y-118038373D01*
X173476869Y-118104997D01*
X173457451Y-118171622D01*
X173405276Y-118217380D01*
X173347266Y-118244431D01*
X173160859Y-118374953D01*
X172999953Y-118535859D01*
X172869432Y-118722264D01*
X172773261Y-118928502D01*
X172714364Y-119148310D01*
X172694531Y-119375000D01*
X172714364Y-119601689D01*
X172773261Y-119821497D01*
X172869432Y-120027735D01*
X172999953Y-120214140D01*
X173160859Y-120375046D01*
X173347264Y-120505567D01*
X173347265Y-120505567D01*
X173347266Y-120505568D01*
X173553504Y-120601739D01*
X173773308Y-120660635D01*
X174000000Y-120680468D01*
X174226692Y-120660635D01*
X174446496Y-120601739D01*
X174652734Y-120505568D01*
X174839139Y-120375047D01*
X175000047Y-120214139D01*
X175130568Y-120027734D01*
X175226739Y-119821496D01*
X175285635Y-119601692D01*
X175305468Y-119375000D01*
X175285635Y-119148308D01*
X175226739Y-118928504D01*
X175130568Y-118722266D01*
X175090206Y-118664623D01*
X175000046Y-118535859D01*
X174839140Y-118374953D01*
X174652733Y-118244431D01*
X174594725Y-118217382D01*
X174542549Y-118171625D01*
X174523129Y-118105000D01*
X174542549Y-118038375D01*
X174594725Y-117992618D01*
X174652734Y-117965568D01*
X174839139Y-117835047D01*
X175000047Y-117674139D01*
X175130568Y-117487734D01*
X175226739Y-117281496D01*
X175285635Y-117061692D01*
X175305468Y-116835000D01*
X175285635Y-116608308D01*
X175226739Y-116388504D01*
X175130568Y-116182266D01*
X175119052Y-116165820D01*
X175000046Y-115995859D01*
X174839139Y-115834952D01*
X174782902Y-115795575D01*
X174742575Y-115748358D01*
X174730195Y-115687511D01*
X174748867Y-115628290D01*
X174793909Y-115585547D01*
X174854025Y-115570000D01*
X180340000Y-115570000D01*
X180340000Y-120650000D01*
X180636333Y-120650000D01*
X178003976Y-123687336D01*
X176821084Y-125052211D01*
X176778885Y-125083797D01*
X176727379Y-125095000D01*
X88951362Y-125095000D01*
X88903909Y-125085561D01*
X88863681Y-125058681D01*
X82994026Y-119189026D01*
X109439526Y-119189026D01*
X109512515Y-119240133D01*
X109718673Y-119336266D01*
X109938397Y-119395141D01*
X110165000Y-119414966D01*
X110391602Y-119395141D01*
X110611326Y-119336266D01*
X110817480Y-119240134D01*
X110890472Y-119189025D01*
X110659316Y-118957869D01*
X112364500Y-118957869D01*
X112370909Y-119017484D01*
X112391682Y-119073179D01*
X112421204Y-119152331D01*
X112507454Y-119267546D01*
X112622669Y-119353796D01*
X112757517Y-119404091D01*
X112817127Y-119410500D01*
X114512872Y-119410499D01*
X114572483Y-119404091D01*
X114707331Y-119353796D01*
X114822546Y-119267546D01*
X114908796Y-119152331D01*
X114959091Y-119017483D01*
X114965500Y-118957873D01*
X114965499Y-118109999D01*
X118074531Y-118109999D01*
X118094364Y-118336689D01*
X118153261Y-118556497D01*
X118249432Y-118762735D01*
X118379953Y-118949140D01*
X118540859Y-119110046D01*
X118727264Y-119240567D01*
X118727265Y-119240567D01*
X118727266Y-119240568D01*
X118933504Y-119336739D01*
X119153308Y-119395635D01*
X119380000Y-119415468D01*
X119606692Y-119395635D01*
X119826496Y-119336739D01*
X120032734Y-119240568D01*
X120219139Y-119110047D01*
X120380047Y-118949139D01*
X120510568Y-118762734D01*
X120606739Y-118556496D01*
X120665635Y-118336692D01*
X120685468Y-118110000D01*
X120665635Y-117883308D01*
X120606739Y-117663504D01*
X120510568Y-117457266D01*
X120483143Y-117418099D01*
X120380046Y-117270859D01*
X120219140Y-117109953D01*
X120032735Y-116979432D01*
X119826497Y-116883261D01*
X119606689Y-116824364D01*
X119380000Y-116804531D01*
X119153310Y-116824364D01*
X118933502Y-116883261D01*
X118727264Y-116979432D01*
X118540859Y-117109953D01*
X118379953Y-117270859D01*
X118249432Y-117457264D01*
X118153261Y-117663502D01*
X118094364Y-117883310D01*
X118074531Y-118109999D01*
X114965499Y-118109999D01*
X114965499Y-117262128D01*
X114959091Y-117202517D01*
X114908796Y-117067669D01*
X114822546Y-116952454D01*
X114707331Y-116866204D01*
X114572483Y-116815909D01*
X114512873Y-116809500D01*
X114512869Y-116809500D01*
X112817130Y-116809500D01*
X112757515Y-116815909D01*
X112622669Y-116866204D01*
X112507454Y-116952454D01*
X112421204Y-117067668D01*
X112370909Y-117202516D01*
X112364500Y-117262130D01*
X112364500Y-118957869D01*
X110659316Y-118957869D01*
X110165001Y-118463553D01*
X110165000Y-118463553D01*
X109439526Y-119189025D01*
X109439526Y-119189026D01*
X82994026Y-119189026D01*
X81915000Y-118110000D01*
X108860033Y-118110000D01*
X108879858Y-118336602D01*
X108938733Y-118556326D01*
X109034866Y-118762484D01*
X109085972Y-118835471D01*
X109085974Y-118835472D01*
X109811446Y-118110001D01*
X110518553Y-118110001D01*
X111244025Y-118835472D01*
X111295134Y-118762480D01*
X111391266Y-118556326D01*
X111450141Y-118336602D01*
X111469966Y-118110000D01*
X111450141Y-117883397D01*
X111391266Y-117663673D01*
X111295133Y-117457515D01*
X111244025Y-117384526D01*
X110518553Y-118110000D01*
X110518553Y-118110001D01*
X109811446Y-118110001D01*
X109811446Y-118110000D01*
X109085973Y-117384526D01*
X109085973Y-117384527D01*
X109034865Y-117457516D01*
X108938733Y-117663672D01*
X108879858Y-117883397D01*
X108860033Y-118110000D01*
X81915000Y-118110000D01*
X80835973Y-117030973D01*
X109439526Y-117030973D01*
X110165000Y-117756446D01*
X110165001Y-117756446D01*
X110890472Y-117030974D01*
X110890471Y-117030972D01*
X110817484Y-116979866D01*
X110611326Y-116883733D01*
X110391602Y-116824858D01*
X110165000Y-116805033D01*
X109938397Y-116824858D01*
X109718672Y-116883733D01*
X109512516Y-116979865D01*
X109439527Y-117030973D01*
X109439526Y-117030973D01*
X80835973Y-117030973D01*
X80681319Y-116876319D01*
X80654439Y-116836091D01*
X80645000Y-116788638D01*
X80645000Y-107700000D01*
X111774000Y-107700000D01*
X112674000Y-107700000D01*
X112674000Y-106800000D01*
X113174000Y-106800000D01*
X113174000Y-107700000D01*
X114074000Y-107700000D01*
X114074000Y-107252176D01*
X114067597Y-107192624D01*
X114017352Y-107057910D01*
X113931188Y-106942811D01*
X113816089Y-106856647D01*
X113681375Y-106806402D01*
X113621824Y-106800000D01*
X113174000Y-106800000D01*
X112674000Y-106800000D01*
X112226176Y-106800000D01*
X112166624Y-106806402D01*
X112031910Y-106856647D01*
X111916811Y-106942811D01*
X111830647Y-107057910D01*
X111780402Y-107192624D01*
X111774000Y-107252176D01*
X111774000Y-107700000D01*
X80645000Y-107700000D01*
X80645000Y-101850000D01*
X102328505Y-101850000D01*
X102381240Y-102035351D01*
X102480365Y-102234422D01*
X102614390Y-102411899D01*
X102778737Y-102561721D01*
X102967821Y-102678797D01*
X103175199Y-102759135D01*
X103255000Y-102774052D01*
X103255000Y-101850000D01*
X103755000Y-101850000D01*
X103755000Y-102774052D01*
X103834800Y-102759135D01*
X104042178Y-102678797D01*
X104231262Y-102561721D01*
X104395609Y-102411899D01*
X104529634Y-102234422D01*
X104628759Y-102035351D01*
X104681495Y-101850000D01*
X103755000Y-101850000D01*
X103255000Y-101850000D01*
X102328505Y-101850000D01*
X80645000Y-101850000D01*
X80645000Y-101350000D01*
X102328505Y-101350000D01*
X103255000Y-101350000D01*
X103255000Y-100425948D01*
X103755000Y-100425948D01*
X103755000Y-101350000D01*
X104681495Y-101350000D01*
X104628759Y-101164648D01*
X104529634Y-100965577D01*
X104395609Y-100788100D01*
X104231262Y-100638278D01*
X104042178Y-100521202D01*
X103834800Y-100440864D01*
X103755000Y-100425948D01*
X103255000Y-100425948D01*
X103175199Y-100440864D01*
X102967821Y-100521202D01*
X102778737Y-100638278D01*
X102614390Y-100788100D01*
X102480365Y-100965577D01*
X102381240Y-101164648D01*
X102328505Y-101350000D01*
X80645000Y-101350000D01*
X80645000Y-97405000D01*
X115561128Y-97405000D01*
X115613733Y-97601326D01*
X115709865Y-97807480D01*
X115840341Y-97993819D01*
X116001180Y-98154658D01*
X116187519Y-98285134D01*
X116393673Y-98381266D01*
X116589999Y-98433871D01*
X116590000Y-98433872D01*
X116590000Y-97405000D01*
X115561128Y-97405000D01*
X80645000Y-97405000D01*
X80645000Y-96905000D01*
X115561128Y-96905000D01*
X116590000Y-96905000D01*
X116590000Y-95876128D01*
X116589999Y-95876128D01*
X116393673Y-95928733D01*
X116187519Y-96024865D01*
X116001180Y-96155341D01*
X115840341Y-96316180D01*
X115709865Y-96502519D01*
X115613733Y-96708673D01*
X115561128Y-96904999D01*
X115561128Y-96905000D01*
X80645000Y-96905000D01*
X80645000Y-95250000D01*
X89680356Y-95250000D01*
X89700891Y-95497816D01*
X89700891Y-95497819D01*
X89700892Y-95497821D01*
X89761937Y-95738881D01*
X89798428Y-95822072D01*
X89861825Y-95966604D01*
X89861827Y-95966607D01*
X89997836Y-96174785D01*
X90166256Y-96357738D01*
X90166259Y-96357740D01*
X90362485Y-96510470D01*
X90362487Y-96510471D01*
X90362491Y-96510474D01*
X90581190Y-96628828D01*
X90816386Y-96709571D01*
X91061665Y-96750500D01*
X91310335Y-96750500D01*
X91555614Y-96709571D01*
X91790810Y-96628828D01*
X92009509Y-96510474D01*
X92056872Y-96473610D01*
X95522942Y-96473610D01*
X95569766Y-96510055D01*
X95788393Y-96628368D01*
X96023506Y-96709083D01*
X96268707Y-96750000D01*
X96517293Y-96750000D01*
X96762493Y-96709083D01*
X96997606Y-96628368D01*
X97216233Y-96510053D01*
X97263056Y-96473609D01*
X97078473Y-96289026D01*
X109764526Y-96289026D01*
X109837515Y-96340133D01*
X110043673Y-96436266D01*
X110263397Y-96495141D01*
X110490000Y-96514966D01*
X110716602Y-96495141D01*
X110936326Y-96436266D01*
X111142480Y-96340134D01*
X111215472Y-96289025D01*
X110490001Y-95563553D01*
X110490000Y-95563553D01*
X109764526Y-96289025D01*
X109764526Y-96289026D01*
X97078473Y-96289026D01*
X96393000Y-95603553D01*
X95522942Y-96473609D01*
X95522942Y-96473610D01*
X92056872Y-96473610D01*
X92205744Y-96357738D01*
X92374164Y-96174785D01*
X92510173Y-95966607D01*
X92610063Y-95738881D01*
X92671108Y-95497821D01*
X92691643Y-95250000D01*
X94887858Y-95250000D01*
X94908386Y-95497732D01*
X94969413Y-95738721D01*
X95069268Y-95966370D01*
X95169563Y-96119882D01*
X95169564Y-96119882D01*
X96039447Y-95250001D01*
X96039447Y-95250000D01*
X95169564Y-94380116D01*
X95069266Y-94533634D01*
X94969413Y-94761278D01*
X94908386Y-95002267D01*
X94887858Y-95250000D01*
X92691643Y-95250000D01*
X92671108Y-95002179D01*
X92610063Y-94761119D01*
X92510173Y-94533393D01*
X92374164Y-94325215D01*
X92205744Y-94142262D01*
X92146911Y-94096470D01*
X92009514Y-93989529D01*
X92009510Y-93989526D01*
X92009509Y-93989526D01*
X91790810Y-93871172D01*
X91790806Y-93871170D01*
X91790805Y-93871170D01*
X91555615Y-93790429D01*
X91310335Y-93749500D01*
X91061665Y-93749500D01*
X90816384Y-93790429D01*
X90581194Y-93871170D01*
X90362485Y-93989529D01*
X90166259Y-94142259D01*
X89997837Y-94325214D01*
X89861825Y-94533395D01*
X89761938Y-94761117D01*
X89700891Y-95002183D01*
X89680356Y-95250000D01*
X80645000Y-95250000D01*
X80645000Y-66091362D01*
X80654439Y-66043909D01*
X80681319Y-66003681D01*
X81030000Y-65655000D01*
X83740000Y-65655000D01*
X83740000Y-66302824D01*
X83746402Y-66362375D01*
X83796647Y-66497089D01*
X83882811Y-66612188D01*
X83997910Y-66698352D01*
X84132624Y-66748597D01*
X84192176Y-66755000D01*
X84840000Y-66755000D01*
X84840000Y-65655000D01*
X83740000Y-65655000D01*
X81030000Y-65655000D01*
X81530000Y-65155000D01*
X83740000Y-65155000D01*
X84840000Y-65155000D01*
X84840000Y-64055000D01*
X84192176Y-64055000D01*
X84132624Y-64061402D01*
X83997910Y-64111647D01*
X83882811Y-64197811D01*
X83796647Y-64312910D01*
X83746402Y-64447624D01*
X83740000Y-64507176D01*
X83740000Y-65155000D01*
X81530000Y-65155000D01*
X85513319Y-61171681D01*
X85562682Y-61141431D01*
X85620398Y-61136889D01*
X85673885Y-61159044D01*
G37*
%TD.AperFunction*%
%TD*%
%TA.AperFunction,Conductor*%
%TO.N,GNDD*%
G36*
X207006091Y-57794439D02*
G01*
X207046319Y-57821319D01*
X215228681Y-66003681D01*
X215255561Y-66043909D01*
X215265000Y-66091362D01*
X215265000Y-123066000D01*
X215248387Y-123128000D01*
X215203000Y-123173387D01*
X215141000Y-123190000D01*
X213115902Y-123190000D01*
X213050780Y-123171523D01*
X213005066Y-123121600D01*
X212992381Y-123055107D01*
X213016508Y-122991860D01*
X213070254Y-122950708D01*
X213156554Y-122916539D01*
X213432212Y-122764995D01*
X213675026Y-122588579D01*
X213675027Y-122588579D01*
X212090000Y-121003553D01*
X210504971Y-122588579D01*
X210504972Y-122588581D01*
X210747783Y-122764993D01*
X211023445Y-122916539D01*
X211109746Y-122950708D01*
X211163492Y-122991860D01*
X211187619Y-123055107D01*
X211174934Y-123121600D01*
X211129220Y-123171523D01*
X211064098Y-123190000D01*
X202193902Y-123190000D01*
X202128780Y-123171523D01*
X202083066Y-123121600D01*
X202070381Y-123055107D01*
X202094508Y-122991860D01*
X202148254Y-122950708D01*
X202234554Y-122916539D01*
X202510212Y-122764995D01*
X202753026Y-122588579D01*
X202753027Y-122588579D01*
X201168000Y-121003553D01*
X199582971Y-122588579D01*
X199582972Y-122588581D01*
X199825783Y-122764993D01*
X200101445Y-122916539D01*
X200187746Y-122950708D01*
X200241492Y-122991860D01*
X200265619Y-123055107D01*
X200252934Y-123121600D01*
X200207220Y-123171523D01*
X200142098Y-123190000D01*
X199452000Y-123190000D01*
X199396546Y-123176909D01*
X199352800Y-123140400D01*
X197485000Y-120650000D01*
X180340000Y-120650000D01*
X180340000Y-120649999D01*
X198663056Y-120649999D01*
X198682808Y-120963948D01*
X198741754Y-121272957D01*
X198838961Y-121572126D01*
X198972904Y-121856769D01*
X199141456Y-122122364D01*
X199232287Y-122232159D01*
X200814447Y-120650001D01*
X201521553Y-120650001D01*
X203103712Y-122232160D01*
X203103713Y-122232160D01*
X203194536Y-122122374D01*
X203363097Y-121856765D01*
X203497038Y-121572126D01*
X203594245Y-121272957D01*
X203653191Y-120963948D01*
X203672943Y-120649999D01*
X203653191Y-120336051D01*
X203594245Y-120027042D01*
X203497038Y-119727873D01*
X203363097Y-119443234D01*
X203322967Y-119379999D01*
X204623389Y-119379999D01*
X204643804Y-119665429D01*
X204704629Y-119945041D01*
X204804634Y-120213163D01*
X204941772Y-120464313D01*
X205027517Y-120578855D01*
X205113261Y-120693395D01*
X205315605Y-120895739D01*
X205406722Y-120963948D01*
X205544686Y-121067227D01*
X205684435Y-121143535D01*
X205795839Y-121204367D01*
X206063954Y-121304369D01*
X206063957Y-121304369D01*
X206063958Y-121304370D01*
X206116217Y-121315738D01*
X206343572Y-121365196D01*
X206629000Y-121385610D01*
X206914428Y-121365196D01*
X207194046Y-121304369D01*
X207462161Y-121204367D01*
X207713315Y-121067226D01*
X207942395Y-120895739D01*
X208144739Y-120693395D01*
X208177225Y-120649999D01*
X209585056Y-120649999D01*
X209604808Y-120963948D01*
X209663754Y-121272957D01*
X209760961Y-121572126D01*
X209894904Y-121856769D01*
X210063456Y-122122364D01*
X210154287Y-122232159D01*
X211736447Y-120650001D01*
X212443553Y-120650001D01*
X214025712Y-122232160D01*
X214025713Y-122232160D01*
X214116536Y-122122374D01*
X214285097Y-121856765D01*
X214419038Y-121572126D01*
X214516245Y-121272957D01*
X214575191Y-120963948D01*
X214594943Y-120649999D01*
X214575191Y-120336051D01*
X214516245Y-120027042D01*
X214419038Y-119727873D01*
X214285097Y-119443234D01*
X214116537Y-119177627D01*
X214025712Y-119067838D01*
X212443553Y-120650000D01*
X212443553Y-120650001D01*
X211736447Y-120650001D01*
X211736447Y-120650000D01*
X210154286Y-119067838D01*
X210154285Y-119067838D01*
X210063459Y-119177630D01*
X209894904Y-119443230D01*
X209760961Y-119727873D01*
X209663754Y-120027042D01*
X209604808Y-120336051D01*
X209585056Y-120649999D01*
X208177225Y-120649999D01*
X208316226Y-120464315D01*
X208453367Y-120213161D01*
X208553369Y-119945046D01*
X208614196Y-119665428D01*
X208634610Y-119380000D01*
X208614196Y-119094572D01*
X208553369Y-118814954D01*
X208514752Y-118711419D01*
X210504971Y-118711419D01*
X212090000Y-120296447D01*
X212090001Y-120296447D01*
X213675027Y-118711419D01*
X213675026Y-118711417D01*
X213432216Y-118535006D01*
X213156551Y-118383459D01*
X212864071Y-118267658D01*
X212559379Y-118189426D01*
X212247289Y-118150000D01*
X211932711Y-118150000D01*
X211620620Y-118189426D01*
X211315928Y-118267658D01*
X211023448Y-118383459D01*
X210747783Y-118535006D01*
X210504972Y-118711418D01*
X210504971Y-118711419D01*
X208514752Y-118711419D01*
X208453367Y-118546839D01*
X208392535Y-118435435D01*
X208316227Y-118295686D01*
X208273354Y-118238415D01*
X208144739Y-118066605D01*
X207942395Y-117864261D01*
X207827854Y-117778517D01*
X207713313Y-117692772D01*
X207462163Y-117555634D01*
X207462162Y-117555633D01*
X207462161Y-117555633D01*
X207194046Y-117455631D01*
X207194041Y-117455629D01*
X206914429Y-117394804D01*
X206629000Y-117374389D01*
X206343570Y-117394804D01*
X206063958Y-117455629D01*
X205795836Y-117555634D01*
X205544686Y-117692772D01*
X205315602Y-117864263D01*
X205113263Y-118066602D01*
X204941772Y-118295686D01*
X204804634Y-118546836D01*
X204704629Y-118814958D01*
X204643804Y-119094570D01*
X204623389Y-119379999D01*
X203322967Y-119379999D01*
X203194537Y-119177627D01*
X203103712Y-119067838D01*
X201521553Y-120650000D01*
X201521553Y-120650001D01*
X200814447Y-120650001D01*
X200814447Y-120649999D01*
X199232286Y-119067838D01*
X199232285Y-119067838D01*
X199141459Y-119177630D01*
X198972904Y-119443230D01*
X198838961Y-119727873D01*
X198741754Y-120027042D01*
X198682808Y-120336051D01*
X198663056Y-120649999D01*
X180340000Y-120649999D01*
X180340000Y-118711419D01*
X199582971Y-118711419D01*
X201168000Y-120296447D01*
X201168001Y-120296447D01*
X202753027Y-118711419D01*
X202753026Y-118711417D01*
X202510216Y-118535006D01*
X202234551Y-118383459D01*
X201942071Y-118267658D01*
X201637379Y-118189426D01*
X201325289Y-118150000D01*
X201010711Y-118150000D01*
X200698620Y-118189426D01*
X200393928Y-118267658D01*
X200101448Y-118383459D01*
X199825783Y-118535006D01*
X199582972Y-118711418D01*
X199582971Y-118711419D01*
X180340000Y-118711419D01*
X180340000Y-113571579D01*
X205043971Y-113571579D01*
X205043972Y-113571581D01*
X205286783Y-113747993D01*
X205562448Y-113899540D01*
X205854928Y-114015341D01*
X206159620Y-114093573D01*
X206471711Y-114133000D01*
X206786289Y-114133000D01*
X207098379Y-114093573D01*
X207403071Y-114015341D01*
X207695551Y-113899540D01*
X207971212Y-113747995D01*
X208214026Y-113571579D01*
X208214027Y-113571579D01*
X206629000Y-111986553D01*
X205043971Y-113571579D01*
X180340000Y-113571579D01*
X180340000Y-111633000D01*
X204124056Y-111633000D01*
X204143808Y-111946948D01*
X204202754Y-112255957D01*
X204299961Y-112555126D01*
X204433904Y-112839769D01*
X204602456Y-113105364D01*
X204693287Y-113215159D01*
X206275447Y-111633001D01*
X206982553Y-111633001D01*
X208564712Y-113215160D01*
X208564713Y-113215160D01*
X208655536Y-113105374D01*
X208824097Y-112839765D01*
X208958038Y-112555126D01*
X209055245Y-112255957D01*
X209114191Y-111946948D01*
X209133943Y-111633000D01*
X209114191Y-111319051D01*
X209055245Y-111010042D01*
X208958038Y-110710873D01*
X208824097Y-110426234D01*
X208655537Y-110160627D01*
X208564712Y-110050838D01*
X206982553Y-111632999D01*
X206982553Y-111633001D01*
X206275447Y-111633001D01*
X206275447Y-111633000D01*
X204693286Y-110050838D01*
X204693285Y-110050838D01*
X204602459Y-110160630D01*
X204433904Y-110426230D01*
X204299961Y-110710873D01*
X204202754Y-111010042D01*
X204143808Y-111319051D01*
X204124056Y-111633000D01*
X180340000Y-111633000D01*
X180340000Y-109694419D01*
X205043971Y-109694419D01*
X206629000Y-111279447D01*
X206629001Y-111279447D01*
X208214027Y-109694419D01*
X208214026Y-109694417D01*
X207971216Y-109518006D01*
X207695551Y-109366459D01*
X207403071Y-109250658D01*
X207098379Y-109172426D01*
X206786289Y-109133000D01*
X206471711Y-109133000D01*
X206159620Y-109172426D01*
X205854928Y-109250658D01*
X205562448Y-109366459D01*
X205286783Y-109518006D01*
X205043972Y-109694418D01*
X205043971Y-109694419D01*
X180340000Y-109694419D01*
X180340000Y-93556884D01*
X180355547Y-93496768D01*
X180398290Y-93451726D01*
X180457511Y-93433054D01*
X180518358Y-93445434D01*
X180565575Y-93485761D01*
X180609953Y-93549140D01*
X180770859Y-93710046D01*
X180957264Y-93840567D01*
X180957265Y-93840567D01*
X180957266Y-93840568D01*
X181163504Y-93936739D01*
X181383308Y-93995635D01*
X181610000Y-94015468D01*
X181836692Y-93995635D01*
X182056496Y-93936739D01*
X182262734Y-93840568D01*
X182449139Y-93710047D01*
X182610047Y-93549139D01*
X182635088Y-93513377D01*
X182679406Y-93474511D01*
X182736663Y-93460500D01*
X182816294Y-93460500D01*
X182834264Y-93461809D01*
X182838320Y-93462402D01*
X182858023Y-93465289D01*
X182907368Y-93460972D01*
X182918176Y-93460500D01*
X182923706Y-93460500D01*
X182923709Y-93460500D01*
X182954550Y-93456894D01*
X182958031Y-93456539D01*
X183032797Y-93449999D01*
X183032797Y-93449998D01*
X183034052Y-93449889D01*
X183053062Y-93445674D01*
X183054250Y-93445241D01*
X183054255Y-93445241D01*
X183124820Y-93419557D01*
X183128095Y-93418419D01*
X183199334Y-93394814D01*
X183199336Y-93394812D01*
X183200536Y-93394415D01*
X183218063Y-93385929D01*
X183219112Y-93385238D01*
X183219117Y-93385237D01*
X183281806Y-93344005D01*
X183284798Y-93342099D01*
X183348656Y-93302712D01*
X183348656Y-93302711D01*
X183349729Y-93302050D01*
X183364824Y-93289753D01*
X183365692Y-93288832D01*
X183365696Y-93288830D01*
X183417185Y-93234253D01*
X183419631Y-93231735D01*
X187249548Y-89401818D01*
X187289776Y-89374939D01*
X187337229Y-89365500D01*
X187426974Y-89365500D01*
X187426976Y-89365500D01*
X187627456Y-89328024D01*
X187817637Y-89254348D01*
X187991041Y-89146981D01*
X188141764Y-89009579D01*
X188264673Y-88846821D01*
X188264673Y-88846819D01*
X188264675Y-88846818D01*
X188313486Y-88748790D01*
X188355582Y-88664250D01*
X188411397Y-88468083D01*
X188419785Y-88377558D01*
X188439889Y-88320507D01*
X188484592Y-88279755D01*
X188543256Y-88265000D01*
X212725000Y-88265000D01*
X212725000Y-71755000D01*
X201419000Y-71755000D01*
X201357000Y-71738387D01*
X201311613Y-71693000D01*
X201295000Y-71631000D01*
X201295000Y-68012764D01*
X203885787Y-68012764D01*
X203915413Y-68282016D01*
X203944035Y-68391496D01*
X203983928Y-68544088D01*
X204037720Y-68670670D01*
X204089871Y-68793392D01*
X204230982Y-69024611D01*
X204404253Y-69232818D01*
X204404255Y-69232820D01*
X204605998Y-69413582D01*
X204831910Y-69563044D01*
X204938211Y-69612876D01*
X205077177Y-69678021D01*
X205336562Y-69756058D01*
X205336569Y-69756060D01*
X205604561Y-69795500D01*
X205807631Y-69795500D01*
X205807634Y-69795500D01*
X206010156Y-69780677D01*
X206010156Y-69780676D01*
X206274553Y-69721780D01*
X206527558Y-69625014D01*
X206763777Y-69492441D01*
X206978177Y-69326888D01*
X207166186Y-69131881D01*
X207323799Y-68911579D01*
X207447656Y-68670675D01*
X207535118Y-68414305D01*
X207584319Y-68147933D01*
X207594212Y-67877235D01*
X207564586Y-67607982D01*
X207496072Y-67345912D01*
X207390130Y-67096610D01*
X207249018Y-66865390D01*
X207249017Y-66865388D01*
X207075746Y-66657181D01*
X206970758Y-66563112D01*
X206874002Y-66476418D01*
X206648090Y-66326956D01*
X206648086Y-66326954D01*
X206402822Y-66211978D01*
X206143437Y-66133941D01*
X206143431Y-66133940D01*
X205875439Y-66094500D01*
X205672369Y-66094500D01*
X205672366Y-66094500D01*
X205469843Y-66109322D01*
X205205449Y-66168219D01*
X204952441Y-66264986D01*
X204716223Y-66397559D01*
X204501825Y-66563109D01*
X204313813Y-66758120D01*
X204156201Y-66978420D01*
X204032342Y-67219329D01*
X203944881Y-67475695D01*
X203895680Y-67742066D01*
X203885787Y-68012764D01*
X201295000Y-68012764D01*
X201295000Y-61027764D01*
X203885787Y-61027764D01*
X203915413Y-61297016D01*
X203983928Y-61559087D01*
X204089871Y-61808392D01*
X204230982Y-62039611D01*
X204320253Y-62146881D01*
X204404255Y-62247820D01*
X204605998Y-62428582D01*
X204831910Y-62578044D01*
X204938211Y-62627876D01*
X205077177Y-62693021D01*
X205336562Y-62771058D01*
X205336569Y-62771060D01*
X205604561Y-62810500D01*
X205807631Y-62810500D01*
X205807634Y-62810500D01*
X206010156Y-62795677D01*
X206010156Y-62795676D01*
X206274553Y-62736780D01*
X206527558Y-62640014D01*
X206763777Y-62507441D01*
X206978177Y-62341888D01*
X207166186Y-62146881D01*
X207323799Y-61926579D01*
X207447656Y-61685675D01*
X207535118Y-61429305D01*
X207584319Y-61162933D01*
X207594212Y-60892235D01*
X207564586Y-60622982D01*
X207496072Y-60360912D01*
X207390130Y-60111610D01*
X207249018Y-59880390D01*
X207249017Y-59880388D01*
X207075746Y-59672181D01*
X206970758Y-59578112D01*
X206874002Y-59491418D01*
X206648090Y-59341956D01*
X206648086Y-59341954D01*
X206402822Y-59226978D01*
X206143437Y-59148941D01*
X206143431Y-59148940D01*
X205875439Y-59109500D01*
X205672369Y-59109500D01*
X205672366Y-59109500D01*
X205469843Y-59124322D01*
X205205449Y-59183219D01*
X204952441Y-59279986D01*
X204716223Y-59412559D01*
X204501825Y-59578109D01*
X204313813Y-59773120D01*
X204156201Y-59993420D01*
X204032342Y-60234329D01*
X203944881Y-60490695D01*
X203895680Y-60757066D01*
X203885787Y-61027764D01*
X201295000Y-61027764D01*
X201295000Y-57909000D01*
X201311613Y-57847000D01*
X201357000Y-57801613D01*
X201419000Y-57785000D01*
X206958638Y-57785000D01*
X207006091Y-57794439D01*
G37*
%TD.AperFunction*%
%TD*%
M02*
